# Blender 4.0.2
# www.blender.org
mtllib 22.mtl
o Icosphere
v -0.543837 -2.725985 0.395121
v -0.527689 -2.733023 0.383390
v -0.543837 -2.725985 -0.395121
v -0.527689 -2.733023 -0.383390
v 0.207731 -2.725965 -0.639320
v 0.201564 -2.733004 -0.620337
v 0.672228 -2.725950 -0.000000
v 0.652269 -2.732990 -0.000000
v 0.207731 -2.725964 0.639320
v 0.201564 -2.733003 0.620337
v 0.393203 -3.923023 -0.195656
v 0.391756 -3.812891 -0.196336
v 1.692390 -0.465565 -0.415753
v 1.676517 -0.414799 -0.407777
v -0.956126 -3.300537 -0.694661
v -0.943967 -3.227641 -0.685827
v 0.127567 -0.465560 1.738022
v 0.130248 -0.414792 1.720462
v -0.064573 -3.923028 0.434417
v -0.065666 -3.812895 0.433251
v -0.433111 -3.923024 0.072833
v -0.432340 -3.812891 0.071433
v 0.307587 -3.923028 0.313493
v 0.307787 -3.812895 0.311906
v 0.918372 -0.465558 1.481070
v 0.905881 -0.414792 1.468440
v 0.365207 -3.300581 -1.123985
v 0.360562 -3.227685 -1.109691
v -1.613544 -0.465556 0.658403
v -1.596015 -0.414788 0.655527
v -0.203103 -3.923024 -0.389406
v -0.201532 -3.812891 -0.389105
v -0.203103 -3.923024 0.389406
v -0.201532 -3.812891 0.389105
v -1.124795 -0.465555 1.331094
v -1.116642 -0.414790 1.315312
v 1.181833 -3.300621 -0.000000
v 1.166804 -3.227724 0.000000
v -1.124795 -0.465555 -1.331094
v -1.116642 -0.414789 -1.315312
v 0.307587 -3.923028 -0.313493
v 0.307787 -3.812895 -0.311906
v -0.433111 -3.923024 -0.072834
v -0.432340 -3.812891 -0.071433
v -1.613544 -0.465556 -0.658403
v -1.596015 -0.414788 -0.655527
v 0.365207 -3.300580 1.123985
v 0.360562 -3.227684 1.109691
v 0.918371 -0.465559 -1.481070
v 0.905881 -0.414793 -1.468440
v 1.692390 -0.465565 0.415753
v 1.676517 -0.414798 0.407777
v 0.393203 -3.923023 0.195656
v 0.391756 -3.812891 0.196336
v -0.064573 -3.923028 -0.434417
v -0.065666 -3.812895 -0.433251
v 0.127567 -0.465559 -1.738022
v 0.130248 -0.414791 -1.720462
v -0.956126 -3.300537 0.694661
v -0.943968 -3.227641 0.685827
v -0.918372 0.465558 1.481070
v -0.905881 0.414792 1.468440
v -0.365207 3.300581 -1.123985
v -0.360562 3.227685 -1.109691
v 1.613544 0.465557 0.658403
v 1.596015 0.414788 0.655527
v 0.433111 3.923024 0.072833
v 0.432340 3.812891 0.071433
v -0.307587 3.923028 0.313493
v -0.307787 3.812895 0.311906
v -1.692390 0.465565 -0.415753
v -1.676517 0.414799 -0.407777
v 0.956126 3.300537 -0.694661
v 0.943967 3.227641 -0.685827
v -0.127567 0.465560 1.738022
v -0.130248 0.414792 1.720462
v 0.064573 3.923028 0.434417
v 0.065666 3.812895 0.433251
v -0.393203 3.923023 -0.195656
v -0.391756 3.812891 -0.196336
v -0.127567 0.465559 -1.738022
v -0.130248 0.414791 -1.720462
v 0.956126 3.300537 0.694661
v 0.943968 3.227641 0.685827
v -1.692390 0.465565 0.415753
v -1.676517 0.414798 0.407777
v -0.393203 3.923023 0.195656
v -0.391756 3.812891 0.196336
v 0.064573 3.923028 -0.434417
v 0.065666 3.812895 -0.433251
v 1.613544 0.465556 -0.658403
v 1.596015 0.414788 -0.655527
v -0.365207 3.300580 1.123985
v -0.360562 3.227684 1.109691
v -0.918371 0.465559 -1.481070
v -0.905881 0.414793 -1.468440
v -0.307587 3.923028 -0.313493
v -0.307787 3.812895 -0.311906
v 0.433111 3.923024 -0.072834
v 0.432340 3.812891 -0.071433
v 1.124795 0.465555 1.331094
v 1.116642 0.414790 1.315312
v -1.181833 3.300621 -0.000000
v -1.166804 3.227724 0.000000
v 1.124795 0.465555 -1.331094
v 1.116642 0.414789 -1.315312
v 0.203103 3.923024 -0.389406
v 0.201532 3.812891 -0.389105
v 0.203103 3.923024 0.389406
v 0.201532 3.812891 0.389105
v -0.207731 2.725964 0.639320
v -0.201564 2.733003 0.620337
v 0.543837 2.725985 0.395121
v 0.527689 2.733023 0.383390
v 0.543837 2.725985 -0.395121
v 0.527689 2.733023 -0.383390
v -0.207731 2.725965 -0.639320
v -0.201564 2.733004 -0.620337
v -0.672228 2.725950 -0.000000
v -0.652269 2.732990 -0.000000
v 0.400426 -3.834420 -0.178676
v 0.646355 -2.796543 -0.000000
v 0.400426 -3.834420 0.178676
v -0.522905 -2.796576 -0.379914
v -0.218927 -3.834421 -0.379914
v -0.428973 -3.834421 -0.090816
v 0.199736 -2.796556 0.614713
v -0.046191 -3.834425 0.436039
v 0.293670 -3.834425 0.325610
v 0.199736 -2.796557 -0.614713
v 0.293670 -3.834425 -0.325610
v -0.046191 -3.834425 -0.436039
v 0.898180 -0.427560 1.469049
v 0.136836 -0.427561 1.716429
v -0.341221 3.173290 -1.050163
v -0.893329 -3.173247 -0.649036
v 1.119601 0.427557 1.308177
v 1.590143 0.427557 0.660546
v 1.674718 -0.427567 -0.400265
v 1.674718 -0.427566 0.400265
v -1.104212 3.173329 0.000000
v 0.341221 -3.173290 -1.050163
v -0.898180 0.427560 1.469049
v -0.136836 0.427561 1.716429
v 1.104212 -3.173329 0.000000
v -1.674718 0.427567 -0.400265
v -1.674718 0.427566 0.400265
v 0.341221 -3.173290 1.050163
v -0.136836 0.427560 -1.716429
v -0.898180 0.427561 -1.469049
v -1.119601 -0.427557 1.308177
v -1.590143 -0.427557 0.660546
v 0.893329 3.173247 -0.649036
v -1.590143 -0.427557 -0.660546
v -1.119601 -0.427557 -1.308177
v 0.893329 3.173248 0.649036
v 0.136836 -0.427560 -1.716429
v 0.898180 -0.427561 -1.469049
v -0.341221 3.173290 1.050163
v -0.893329 -3.173248 0.649036
v 1.590143 0.427557 -0.660546
v 1.119601 0.427557 -1.308177
v 0.428973 3.834421 0.090816
v 0.218927 3.834421 0.379914
v 0.522905 2.796576 0.379914
v 0.046191 3.834425 0.436039
v -0.293670 3.834425 0.325610
v -0.199736 2.796556 0.614713
v -0.400426 3.834420 0.178676
v -0.400426 3.834420 -0.178676
v -0.646355 2.796543 -0.000000
v -0.293670 3.834425 -0.325610
v 0.046191 3.834425 -0.436039
v -0.199736 2.796557 -0.614713
v 0.218927 3.834421 -0.379914
v 0.428973 3.834421 -0.090816
v 0.522905 2.796576 -0.379914
v -0.525763 -2.729504 0.381990
v -0.525763 -2.729504 -0.381990
v 0.200828 -2.729484 -0.618073
v 0.649888 -2.729470 -0.000000
v 0.200828 -2.729484 0.618073
v 0.388509 -3.898883 -0.204629
v 1.631336 -0.537202 -0.410467
v -0.933946 -3.239601 -0.678546
v 0.113728 -0.537195 1.678324
v -0.074556 -3.898888 0.432726
v -0.434588 -3.898884 0.062816
v 0.314670 -3.898888 0.306256
v 0.894477 -0.537196 1.424638
v 0.356734 -3.239644 -1.097910
v -1.561043 -0.537193 0.626794
v -0.194031 -3.898884 -0.393906
v -0.194031 -3.898884 0.393906
v -1.078508 -0.537195 1.290931
v 1.154416 -3.239683 0.000000
v -1.078508 -0.537194 -1.290931
v 0.314670 -3.898888 -0.306256
v -0.434588 -3.898884 -0.062816
v -1.561043 -0.537193 -0.626794
v 0.356734 -3.239643 1.097910
v 0.894477 -0.537197 -1.424638
v 1.631336 -0.537201 0.410467
v 0.388509 -3.898883 0.204629
v -0.074556 -3.898888 -0.432726
v 0.113728 -0.537194 -1.678324
v -0.933946 -3.239601 0.678546
v -0.894477 0.537196 1.424638
v -0.356734 3.239644 -1.097910
v 1.561043 0.537193 0.626794
v 0.434588 3.898884 0.062816
v -0.314670 3.898888 0.306256
v -1.631336 0.537202 -0.410467
v 0.933946 3.239601 -0.678546
v -0.113728 0.537195 1.678324
v 0.074556 3.898888 0.432726
v -0.388509 3.898883 -0.204629
v -0.113728 0.537194 -1.678324
v 0.933946 3.239601 0.678546
v -1.631336 0.537201 0.410467
v -0.388509 3.898883 0.204629
v 0.074556 3.898888 -0.432726
v 1.561043 0.537193 -0.626794
v -0.356734 3.239643 1.097910
v -0.894477 0.537197 -1.424638
v -0.314670 3.898888 -0.306256
v 0.434588 3.898884 -0.062816
v 1.078508 0.537195 1.290931
v -1.154416 3.239683 0.000000
v 1.078508 0.537194 -1.290931
v 0.194031 3.898884 -0.393906
v 0.194031 3.898884 0.393906
v -0.200828 2.729484 0.618073
v 0.525763 2.729504 0.381990
v 0.525763 2.729504 -0.381990
v -0.200828 2.729484 -0.618073
v -0.649888 2.729470 -0.000000
v -0.425843 -3.838914 0.083313
v -0.523624 -2.758547 0.384256
v 0.197765 -2.758527 0.618648
v 0.295548 -3.838918 0.317700
v 0.649489 -2.758514 0.003090
v 0.393483 -3.838913 -0.182906
v -0.052360 -3.838918 0.430744
v 0.203643 -2.758527 0.616738
v 0.137171 -0.464092 1.717079
v 0.898291 -0.464091 1.469772
v 0.302287 -3.844045 0.323933
v -0.054148 -3.844045 0.439747
v 1.675439 -0.464098 0.400147
v 1.675439 -0.464098 -0.400147
v 0.401494 -3.844041 -0.187389
v 0.401494 -3.844041 0.187389
v 0.203643 -2.758528 -0.616738
v -0.052360 -3.838918 -0.430743
v 0.393483 -3.838913 0.182906
v 0.649489 -2.758514 -0.003090
v -0.210824 -3.838914 -0.379256
v -0.527256 -2.758547 -0.379256
v -0.527256 -2.758547 0.379256
v -0.210824 -3.838915 0.379256
v -1.590657 -0.464089 0.661066
v -1.120255 -0.464089 1.308505
v -0.214669 -3.844042 0.387591
v -0.434959 -3.844041 0.084395
v 0.295548 -3.838918 -0.317700
v 0.197765 -2.758528 -0.618648
v -0.523624 -2.758547 -0.384256
v -0.425843 -3.838914 -0.083313
v -1.120255 -0.464088 -1.308506
v -1.590658 -0.464089 -0.661066
v -0.434959 -3.844041 -0.084395
v -0.214669 -3.844041 -0.387591
v 0.898291 -0.464092 -1.469772
v 0.137171 -0.464091 -1.717079
v -0.054148 -3.844045 -0.439747
v 0.302287 -3.844045 -0.323933
v 1.087549 0.435834 1.298161
v -0.922445 -3.226251 -0.677352
v 1.642900 -0.435842 -0.411001
v -1.144410 3.226333 0.005794
v -0.922445 -3.226251 0.677352
v 1.087549 0.435833 -1.298161
v -1.144410 3.226333 -0.005794
v 1.642900 -0.435842 0.411001
v -0.898559 0.435836 1.435471
v 0.359153 -3.226294 -1.086603
v 0.898559 -0.435836 1.435471
v -0.359153 3.226294 -1.086603
v -0.929256 -3.226251 -0.667977
v 1.570713 0.435834 0.633158
v -0.348132 3.226294 -1.090184
v 0.116792 -0.435836 1.689486
v -1.642900 0.435842 -0.411001
v 1.144410 -3.226333 0.005794
v -1.087549 -0.435834 1.298161
v 0.922445 3.226251 -0.677352
v 0.348132 -3.226294 -1.090184
v -0.116792 0.435836 1.689486
v 0.929256 3.226251 -0.667977
v -1.570713 -0.435834 0.633158
v -0.116792 0.435835 -1.689486
v 0.348132 -3.226294 1.090184
v -1.570713 -0.435834 -0.633158
v 0.929256 3.226251 0.667977
v 1.144410 -3.226333 -0.005794
v -1.642900 0.435842 0.411001
v 0.922445 3.226251 0.677352
v -1.087549 -0.435833 -1.298161
v 1.570713 0.435834 -0.633158
v -0.929256 -3.226251 0.667977
v 0.116792 -0.435835 -1.689486
v -0.348132 3.226294 1.090184
v 0.359153 -3.226293 1.086603
v -0.898559 0.435837 -1.435471
v -0.359153 3.226293 1.086603
v 0.898559 -0.435837 -1.435471
v 0.214669 3.844042 0.387591
v 0.434959 3.844041 0.084395
v 1.590657 0.464089 0.661066
v 1.120255 0.464089 1.308505
v -0.302287 3.844045 0.323933
v 0.054148 3.844045 0.439747
v -0.137171 0.464092 1.717079
v -0.898291 0.464091 1.469772
v -0.401494 3.844041 -0.187389
v -0.401494 3.844041 0.187389
v -1.675439 0.464098 0.400147
v -1.675439 0.464098 -0.400147
v 0.054148 3.844045 -0.439747
v -0.302287 3.844045 -0.323933
v -0.898291 0.464092 -1.469772
v -0.137171 0.464091 -1.717079
v 0.434959 3.844041 -0.084395
v 0.214669 3.844041 -0.387591
v 1.120255 0.464088 -1.308506
v 1.590658 0.464089 -0.661066
v -0.197765 2.758527 0.618648
v -0.295548 3.838918 0.317700
v 0.425843 3.838914 0.083313
v 0.523624 2.758547 0.384256
v 0.210824 3.838914 -0.379256
v 0.527256 2.758547 -0.379256
v 0.527256 2.758547 0.379256
v 0.210824 3.838915 0.379256
v -0.649489 2.758514 0.003090
v -0.393483 3.838913 -0.182906
v 0.052360 3.838918 0.430744
v -0.203643 2.758527 0.616738
v -0.203643 2.758528 -0.616738
v 0.052360 3.838918 -0.430743
v -0.393483 3.838913 0.182906
v -0.649489 2.758514 -0.003090
v 0.523624 2.758547 -0.384256
v 0.425843 3.838914 -0.083313
v -0.295548 3.838918 -0.317700
v -0.197765 2.758528 -0.618648
v -0.522905 -2.796576 0.379914
v -0.428973 -3.834421 0.090816
v -0.218927 -3.834421 0.379914
vn -0.5035 0.2565 -0.8250
vn 0.8134 -0.0928 -0.5742
vn -0.5035 0.2565 0.8250
vn 0.8134 -0.0928 0.5742
vn -0.9967 0.0813 -0.0000
vn -0.9276 -0.3735 -0.0000
vn 0.8923 0.2565 -0.3715
vn -0.3205 -0.0928 -0.9427
vn 0.8063 0.0813 0.5859
vn 0.7504 -0.3735 0.5452
vn -0.0776 0.2565 0.9634
vn -0.9956 -0.0928 -0.0136
vn -0.9403 0.2565 -0.2239
vn -0.2948 -0.0928 0.9511
vn -0.3080 0.0813 -0.9479
vn -0.2867 -0.3735 -0.8822
vn 0.6291 0.2565 -0.7338
vn 0.7975 -0.0928 0.5962
vn 0.6291 0.2565 0.7338
vn 0.7975 -0.0928 -0.5962
vn -0.3080 0.0813 0.9479
vn -0.2867 -0.3735 0.8822
vn -0.9403 0.2565 0.2239
vn -0.2948 -0.0928 -0.9511
vn 0.2802 0.4217 0.8624
vn 0.3060 -0.1396 0.9417
vn 0.4910 0.5688 0.6598
vn 0.1680 -0.5886 -0.7908
vn -0.0094 0.5688 0.8224
vn -0.6008 -0.5886 -0.5410
vn 0.7851 -0.5688 0.2451
vn -0.3289 0.5886 -0.7386
vn 0.7336 -0.4217 0.5330
vn 0.8011 0.1396 0.5820
vn 0.4758 -0.5688 0.6709
vn -0.8040 0.5886 -0.0846
vn 0.9067 0.4217 -0.0000
vn 0.9902 -0.1396 -0.0000
vn 0.7792 0.5688 -0.2631
vn -0.7002 -0.5886 -0.4042
vn 0.7792 0.5688 0.2631
vn -0.7002 -0.5886 0.4042
vn 0.0094 -0.5688 0.8224
vn 0.6008 0.5886 -0.5410
vn -0.2802 -0.4217 0.8624
vn -0.3060 0.1396 0.9417
vn -0.4910 -0.5688 0.6598
vn -0.1680 0.5886 -0.7908
vn -0.7792 -0.5688 0.2631
vn 0.7002 0.5886 0.4042
vn -0.9067 -0.4217 -0.0000
vn -0.9902 0.1396 -0.0000
vn -0.7792 -0.5688 -0.2631
vn 0.7002 0.5886 -0.4042
vn -0.4910 -0.5688 -0.6598
vn -0.1680 0.5886 0.7908
vn -0.2802 -0.4217 -0.8624
vn -0.3060 0.1396 -0.9417
vn 0.0094 -0.5688 -0.8224
vn 0.6008 0.5886 0.5410
vn -0.7336 0.4217 0.5330
vn -0.8011 -0.1396 0.5820
vn -0.4758 0.5688 0.6709
vn 0.8040 -0.5886 -0.0846
vn -0.7851 0.5688 0.2451
vn 0.3289 -0.5886 -0.7386
vn -0.7336 0.4217 -0.5330
vn -0.8011 -0.1396 -0.5820
vn -0.7851 0.5688 -0.2451
vn 0.3288 -0.5886 0.7386
vn -0.4758 0.5688 -0.6709
vn 0.8040 -0.5886 0.0846
vn 0.2802 0.4217 -0.8624
vn 0.3060 -0.1396 -0.9417
vn -0.0094 0.5688 -0.8224
vn -0.6008 -0.5886 0.5410
vn 0.4910 0.5688 -0.6598
vn 0.1680 -0.5886 0.7908
vn 0.4758 -0.5688 -0.6709
vn -0.8040 0.5886 0.0846
vn 0.7336 -0.4217 -0.5330
vn 0.8011 0.1396 -0.5820
vn 0.7851 -0.5688 -0.2451
vn -0.3288 0.5886 0.7386
vn -0.8063 -0.0813 -0.5859
vn -0.7504 0.3735 -0.5452
vn -0.8923 -0.2565 0.3715
vn 0.3205 0.0928 0.9427
vn 0.0776 -0.2565 -0.9634
vn 0.9956 0.0928 0.0136
vn 0.3080 -0.0813 -0.9479
vn 0.2867 0.3735 -0.8822
vn -0.6291 -0.2565 -0.7338
vn -0.7975 0.0928 0.5962
vn 0.9403 -0.2565 -0.2239
vn 0.2948 0.0928 0.9511
vn 0.9967 -0.0813 -0.0000
vn 0.9276 0.3735 -0.0000
vn 0.5035 -0.2565 -0.8250
vn -0.8134 0.0928 -0.5742
vn 0.5035 -0.2565 0.8250
vn -0.8134 0.0928 0.5742
vn 0.3080 -0.0813 0.9479
vn 0.2867 0.3735 0.8822
vn 0.9403 -0.2565 0.2239
vn 0.2948 0.0928 -0.9511
vn -0.6291 -0.2565 0.7338
vn -0.7975 0.0928 -0.5962
vn -0.8063 -0.0813 0.5859
vn -0.7504 0.3735 0.5452
vn 0.0776 -0.2565 0.9634
vn 0.9956 0.0928 -0.0136
vn -0.8923 -0.2565 -0.3715
vn 0.3205 0.0928 -0.9427
vn 0.1911 0.9816 -0.0000
vn 0.8772 -0.4801 -0.0000
vn 0.0590 0.9816 0.1818
vn 0.2711 -0.4801 0.8343
vn -0.1547 0.9816 0.1123
vn -0.7097 -0.4801 0.5156
vn -0.1547 0.9816 -0.1123
vn -0.7097 -0.4801 -0.5156
vn 0.0590 0.9816 -0.1818
vn 0.2711 -0.4801 -0.8343
vn 0.1363 -0.1123 -0.9843
vn -0.6180 0.1839 -0.7644
vn 0.5140 -0.5491 0.6591
vn -0.1919 0.0836 0.9778
vn 0.7856 -0.5490 0.2852
vn 0.8707 0.0836 -0.4847
vn -0.8940 -0.1123 0.4338
vn -0.9179 0.1839 -0.3516
vn -0.7573 -0.3518 -0.5502
vn -0.8060 0.0869 -0.5856
vn 0.2893 -0.3518 -0.8903
vn 0.3078 0.0869 -0.9475
vn 0.9782 -0.1123 -0.1745
vn 0.5360 0.1839 -0.8240
vn -0.4680 -0.5490 0.6925
vn -0.9893 0.0836 0.1196
vn -0.0284 -0.5490 0.8353
vn 0.7300 0.0836 0.6783
vn -0.6888 -0.1123 -0.7162
vn 0.0507 0.1839 -0.9816
vn 0.9361 -0.3518 -0.0000
vn 0.9962 0.0869 -0.0000
vn 0.4683 -0.1123 0.8764
vn 0.9493 0.1839 0.2551
vn -0.8032 -0.5490 -0.2311
vn -0.4195 0.0836 -0.9039
vn -0.8032 -0.5490 0.2311
vn -0.4195 0.0836 0.9039
vn 0.4683 -0.1123 -0.8764
vn 0.9493 0.1839 -0.2551
vn 0.2893 -0.3518 0.8903
vn 0.3078 0.0869 0.9475
vn -0.6888 -0.1123 0.7162
vn 0.0507 0.1839 0.9816
vn -0.0284 -0.5490 -0.8353
vn 0.7300 0.0836 -0.6783
vn -0.4680 -0.5490 -0.6925
vn -0.9893 0.0836 -0.1196
vn 0.9782 -0.1123 0.1745
vn 0.5360 0.1839 0.8240
vn 0.1363 -0.1123 0.9843
vn -0.6180 0.1839 0.7644
vn -0.7573 -0.3518 0.5502
vn -0.8060 0.0869 0.5856
vn -0.8940 -0.1123 -0.4338
vn -0.9179 0.1839 0.3516
vn 0.7856 -0.5490 -0.2852
vn 0.8707 0.0836 0.4847
vn 0.5140 -0.5491 -0.6591
vn -0.1919 0.0836 -0.9778
vn 0.4680 0.5490 0.6925
vn 0.9893 -0.0836 0.1196
vn 0.0284 0.5490 0.8353
vn -0.7300 -0.0836 0.6783
vn 0.6888 0.1123 -0.7162
vn -0.0507 -0.1839 -0.9816
vn -0.2893 0.3518 -0.8903
vn -0.3078 -0.0869 -0.9475
vn -0.9782 0.1123 -0.1745
vn -0.5360 -0.1839 -0.8240
vn -0.5140 0.5491 0.6591
vn 0.1919 -0.0836 0.9778
vn -0.7856 0.5490 0.2852
vn -0.8707 -0.0836 -0.4847
vn 0.8940 0.1123 0.4338
vn 0.9179 -0.1839 -0.3516
vn 0.7573 0.3518 -0.5502
vn 0.8060 -0.0869 -0.5856
vn -0.1363 0.1123 -0.9843
vn 0.6180 -0.1839 -0.7644
vn -0.7856 0.5490 -0.2852
vn -0.8707 -0.0836 0.4847
vn -0.5140 0.5491 -0.6591
vn 0.1919 -0.0836 -0.9778
vn -0.1363 0.1123 0.9843
vn 0.6180 -0.1839 0.7644
vn 0.7573 0.3518 0.5502
vn 0.8060 -0.0869 0.5856
vn 0.8940 0.1123 -0.4338
vn 0.9179 -0.1839 0.3516
vn 0.0284 0.5490 -0.8353
vn -0.7300 -0.0836 -0.6783
vn 0.4680 0.5490 -0.6925
vn 0.9893 -0.0836 -0.1196
vn -0.9782 0.1123 0.1745
vn -0.5360 -0.1839 0.8240
vn -0.2893 0.3518 0.8903
vn -0.3078 -0.0869 0.9475
vn 0.6888 0.1123 0.7162
vn -0.0507 -0.1839 0.9816
vn 0.8032 0.5490 -0.2311
vn 0.4195 -0.0836 -0.9039
vn 0.8032 0.5490 0.2311
vn 0.4195 -0.0836 0.9039
vn -0.4683 0.1123 -0.8764
vn -0.9493 -0.1839 -0.2551
vn -0.9361 0.3518 -0.0000
vn -0.9962 -0.0869 -0.0000
vn -0.4683 0.1123 0.8764
vn -0.9493 -0.1839 0.2551
vn -0.0590 -0.9816 -0.1818
vn -0.2711 0.4801 -0.8343
vn -0.1911 -0.9816 -0.0000
vn -0.8772 0.4801 -0.0000
vn -0.0590 -0.9816 0.1818
vn -0.2711 0.4801 0.8343
vn 0.1547 -0.9816 0.1123
vn 0.7097 0.4801 0.5156
vn 0.1547 -0.9816 -0.1123
vn 0.7097 0.4801 -0.5156
vn 0.4015 -0.2074 0.8921
vn 0.9667 0.1461 -0.2103
vn -0.2754 -0.4537 0.8475
vn 0.3090 0.0170 -0.9509
vn -0.8492 -0.2074 0.4857
vn -0.6585 0.1461 -0.7383
vn -0.3077 -0.0914 0.9471
vn -0.2910 0.3363 0.8957
vn 0.1995 -0.2074 0.9577
vn -0.9056 0.1461 0.3981
vn 0.8056 -0.0914 0.5853
vn 0.7619 0.3363 0.5536
vn 0.9725 -0.2074 -0.1062
vn 0.0987 0.1461 -0.9843
vn 0.7209 -0.4537 0.5238
vn -0.8089 0.0170 -0.5877
vn -0.0266 -0.9963 -0.0820
vn -0.3089 0.0219 -0.9508
vn -0.5701 -0.1713 0.8036
vn -0.9860 0.1648 0.0262
vn 0.3073 -0.1044 0.9459
vn 0.2949 0.2984 0.9077
vn 0.9335 -0.1713 0.3150
vn 0.8131 0.1648 -0.5583
vn -0.0862 -0.9963 -0.0000
vn -0.9998 0.0219 -0.0000
vn 0.5881 -0.1713 0.7905
vn -0.2797 0.1648 0.9458
vn 0.9945 -0.1044 -0.0000
vn 0.9545 0.2984 -0.0000
vn 0.5881 -0.1713 -0.7905
vn -0.2797 0.1648 -0.9458
vn 0.9725 -0.2074 0.1062
vn 0.0987 0.1461 0.9843
vn 0.8056 -0.0914 -0.5853
vn 0.7619 0.3363 -0.5536
vn 0.1995 -0.2074 -0.9577
vn -0.9056 0.1461 -0.3981
vn 0.7209 -0.4537 -0.5238
vn -0.8089 0.0170 0.5877
vn -0.7243 -0.2074 0.6575
vn 0.4987 0.1461 0.8544
vn -0.8911 -0.4538 -0.0000
vn 0.9999 0.0170 -0.0000
vn -0.7243 -0.2074 -0.6575
vn 0.4987 0.1461 -0.8544
vn -0.9958 -0.0914 -0.0000
vn -0.9418 0.3363 -0.0000
vn 0.0698 -0.9963 -0.0507
vn 0.8088 0.0219 -0.5877
vn -0.9404 -0.1713 -0.2938
vn -0.3296 0.1648 -0.9296
vn -0.8046 -0.1044 0.5846
vn -0.7722 0.2984 0.5610
vn -0.0111 -0.1713 0.9852
vn 0.7822 0.1648 0.6008
vn -0.8492 -0.2074 -0.4857
vn -0.6585 0.1461 0.7383
vn -0.2754 -0.4537 -0.8475
vn 0.3090 0.0170 0.9509
vn 0.4015 -0.2074 -0.8921
vn 0.9667 0.1461 0.2103
vn -0.3077 -0.0914 -0.9471
vn -0.2910 0.3363 -0.8957
vn 0.0698 -0.9963 0.0507
vn 0.8088 0.0219 0.5877
vn -0.0111 -0.1713 -0.9852
vn 0.7822 0.1648 -0.6008
vn -0.8046 -0.1044 -0.5846
vn -0.7722 0.2984 -0.5610
vn -0.9404 -0.1713 0.2938
vn -0.3297 0.1648 0.9296
vn -0.0266 -0.9963 0.0820
vn -0.3089 0.0219 0.9508
vn 0.9335 -0.1713 -0.3150
vn 0.8131 0.1648 0.5583
vn 0.3073 -0.1044 -0.9459
vn 0.2949 0.2984 -0.9077
vn -0.5700 -0.1713 -0.8036
vn -0.9860 0.1648 -0.0262
vn -0.8081 0.1363 0.5731
vn 0.7208 -0.0246 -0.6927
vn -0.1042 0.1912 -0.9760
vn 0.6409 -0.5401 -0.5454
vn -0.3169 -0.1363 -0.9386
vn 0.1761 0.0246 0.9841
vn -0.6580 -0.1912 0.7284
vn 0.1979 0.5401 0.8180
vn -0.8081 0.1363 -0.5731
vn 0.7208 -0.0246 0.6927
vn -0.6580 -0.1912 -0.7284
vn 0.1979 0.5401 -0.8180
vn -0.3169 -0.1363 0.9386
vn 0.1761 0.0246 -0.9841
vn -0.1042 0.1912 0.9760
vn 0.6409 -0.5402 0.5454
vn -0.7948 0.1363 -0.5914
vn 0.8815 -0.0246 0.4715
vn 0.8960 0.1912 -0.4007
vn 0.7168 -0.5401 0.4410
vn 0.7948 -0.1363 -0.5914
vn -0.8815 0.0246 0.4715
vn -0.8960 -0.1912 -0.4007
vn -0.7168 0.5401 0.4410
vn 0.2954 0.1363 -0.9456
vn -0.4360 -0.0246 0.8996
vn 0.4894 -0.1912 -0.8509
vn 0.8391 0.5401 -0.0646
vn -0.9906 -0.1363 -0.0113
vn 0.9903 0.0246 -0.1367
vn -0.9604 0.1912 0.2025
vn -0.3208 -0.5401 0.7781
vn 0.3169 0.1363 -0.9386
vn -0.1761 -0.0246 0.9841
vn 0.6580 0.1912 0.7284
vn -0.1979 -0.5401 0.8180
vn 0.8081 -0.1363 0.5731
vn -0.7208 0.0246 -0.6927
vn 0.1042 -0.1912 -0.9760
vn -0.6409 0.5401 -0.5454
vn 0.9906 0.1363 -0.0113
vn -0.9903 -0.0246 -0.1367
vn 0.9604 -0.1912 0.2025
vn 0.3208 0.5401 0.7781
vn -0.2954 -0.1363 -0.9456
vn 0.4360 0.0246 0.8996
vn -0.4894 0.1912 -0.8509
vn -0.8391 -0.5401 -0.0646
vn 0.9906 0.1363 0.0113
vn -0.9903 -0.0246 0.1367
vn -0.4894 0.1912 0.8509
vn -0.8391 -0.5401 0.0646
vn -0.2953 -0.1363 0.9456
vn 0.4360 0.0246 -0.8996
vn 0.9604 -0.1912 -0.2025
vn 0.3208 0.5401 -0.7781
vn 0.3169 0.1363 0.9386
vn -0.1761 -0.0246 -0.9841
vn 0.1042 -0.1912 0.9760
vn -0.6409 0.5402 0.5454
vn 0.8081 -0.1363 -0.5731
vn -0.7208 0.0246 0.6927
vn 0.6580 0.1912 -0.7284
vn -0.1979 -0.5401 -0.8180
vn 0.2953 0.1363 0.9456
vn -0.4360 -0.0246 -0.8996
vn -0.9604 0.1912 -0.2025
vn -0.3208 -0.5401 -0.7781
vn -0.9906 -0.1363 0.0113
vn 0.9903 0.0246 0.1367
vn 0.4894 -0.1912 0.8509
vn 0.8391 0.5401 0.0646
vn -0.7948 0.1363 0.5914
vn 0.8815 -0.0246 -0.4715
vn -0.8960 -0.1912 0.4007
vn -0.7168 0.5401 -0.4410
vn 0.7948 -0.1363 0.5914
vn -0.8815 0.0246 -0.4715
vn 0.8960 0.1912 0.4007
vn 0.7168 -0.5401 -0.4410
vn 0.8046 0.1044 0.5846
vn 0.7722 -0.2984 0.5610
vn 0.0111 0.1713 0.9852
vn -0.7822 -0.1648 0.6008
vn -0.0698 0.9963 -0.0507
vn -0.8088 -0.0219 -0.5877
vn 0.9404 0.1713 -0.2938
vn 0.3296 -0.1648 -0.9296
vn -0.3073 0.1044 0.9459
vn -0.2949 -0.2984 0.9077
vn -0.9335 0.1713 0.3150
vn -0.8131 -0.1648 -0.5583
vn 0.0266 0.9963 -0.0820
vn 0.3089 -0.0219 -0.9508
vn 0.5701 0.1713 0.8036
vn 0.9860 -0.1648 0.0262
vn -0.9945 0.1044 -0.0000
vn -0.9545 -0.2984 -0.0000
vn -0.5881 0.1713 -0.7905
vn 0.2797 -0.1648 -0.9458
vn 0.0862 0.9963 -0.0000
vn 0.9998 -0.0219 -0.0000
vn -0.5881 0.1713 0.7905
vn 0.2797 -0.1648 0.9458
vn -0.3073 0.1044 -0.9459
vn -0.2949 -0.2984 -0.9077
vn 0.5700 0.1713 -0.8036
vn 0.9860 -0.1648 -0.0262
vn 0.0266 0.9963 0.0820
vn 0.3089 -0.0219 0.9508
vn -0.9335 0.1713 -0.3150
vn -0.8131 -0.1648 0.5583
vn 0.8046 0.1044 -0.5846
vn 0.7722 -0.2984 -0.5610
vn 0.9404 0.1713 0.2938
vn 0.3297 -0.1648 0.9296
vn -0.0698 0.9963 0.0507
vn -0.8088 -0.0219 0.5877
vn 0.0111 0.1713 -0.9852
vn -0.7822 -0.1648 -0.6008
vn 0.8492 0.2074 0.4857
vn 0.6585 -0.1461 -0.7383
vn 0.3077 0.0914 0.9471
vn 0.2910 -0.3363 0.8957
vn -0.4015 0.2074 0.8921
vn -0.9667 -0.1461 -0.2103
vn 0.2754 0.4537 0.8475
vn -0.3090 -0.0170 -0.9509
vn 0.7243 0.2074 0.6575
vn -0.4987 -0.1461 0.8544
vn 0.8911 0.4538 -0.0000
vn -0.9999 -0.0170 -0.0000
vn 0.7243 0.2074 -0.6575
vn -0.4987 -0.1461 -0.8544
vn 0.9958 0.0914 -0.0000
vn 0.9418 -0.3363 -0.0000
vn -0.1995 0.2074 0.9577
vn 0.9056 -0.1461 0.3981
vn -0.8056 0.0914 0.5853
vn -0.7619 -0.3363 0.5536
vn -0.9725 0.2074 -0.1062
vn -0.0987 -0.1461 -0.9843
vn -0.7209 0.4537 0.5238
vn 0.8089 -0.0170 -0.5877
vn -0.9725 0.2074 0.1062
vn -0.0987 -0.1461 0.9843
vn -0.8056 0.0914 -0.5853
vn -0.7619 -0.3363 -0.5536
vn -0.1995 0.2074 -0.9577
vn 0.9056 -0.1461 -0.3981
vn -0.7209 0.4537 -0.5238
vn 0.8089 -0.0170 0.5877
vn -0.4015 0.2074 -0.8921
vn -0.9667 -0.1461 0.2103
vn 0.3077 0.0914 -0.9471
vn 0.2910 -0.3363 -0.8957
vn 0.8492 0.2074 -0.4857
vn 0.6585 -0.1461 0.7383
vn 0.2754 0.4537 -0.8475
vn -0.3090 -0.0170 0.9509
vn -0.0776 0.2565 -0.9634
vn -0.9956 -0.0928 0.0136
vn 0.8063 0.0813 -0.5859
vn 0.7504 -0.3735 -0.5452
vn 0.8923 0.2565 0.3715
vn -0.3205 -0.0928 0.9427
vt 0.397529 0.085407
vt 0.363637 0.144110
vt 0.329745 0.085407
vt 0.727273 0.144109
vt 0.693381 0.085407
vt 0.761164 0.085407
vt 0.181819 0.144110
vt 0.147927 0.085406
vt 0.215711 0.085406
vt 0.545455 0.144110
vt 0.511563 0.085406
vt 0.579347 0.085406
vt 0.215710 0.229514
vt 0.147927 0.229514
vt 0.181819 0.170813
vt 0.272728 0.301568
vt 0.238838 0.242868
vt 0.306619 0.242868
vt 0.397529 0.229514
vt 0.329745 0.229514
vt 0.363637 0.170812
vt 0.090910 0.301569
vt 0.057019 0.242868
vt 0.124801 0.242868
vt 0.818182 0.301570
vt 0.784290 0.242868
vt 0.852074 0.242868
vt 0.636364 0.301569
vt 0.602472 0.242868
vt 0.670255 0.242868
vt 0.942982 0.229514
vt 0.875200 0.229514
vt 0.909091 0.170814
vt 0.761164 0.229514
vt 0.693383 0.229514
vt 0.727273 0.170814
vt 0.579347 0.229514
vt 0.511564 0.229514
vt 0.545455 0.170813
vt 0.454546 0.301568
vt 0.420655 0.242868
vt 0.488437 0.242868
vt 0.306619 0.386975
vt 0.238836 0.386975
vt 0.272728 0.328273
vt 0.124802 0.386976
vt 0.057018 0.386976
vt 0.090910 0.328272
vt 0.852074 0.386975
vt 0.784290 0.386975
vt 0.818182 0.328272
vt 0.670256 0.386976
vt 0.602472 0.386976
vt 0.636364 0.328272
vt 0.488438 0.386975
vt 0.420655 0.386975
vt 0.454546 0.328273
vt 0.909091 0.144109
vt 0.846691 0.108081
vt 0.901146 0.013761
vt 0.917037 0.013762
vt 0.971492 0.108083
vt 0.210328 0.049380
vt 0.264784 0.143701
vt 0.256838 0.157461
vt 0.147927 0.157461
vt 0.875200 0.085407
vt 0.937600 0.049379
vt 0.992056 0.143701
vt 0.984110 0.157461
vt 0.875200 0.157461
vt 0.880583 0.049379
vt 0.942983 0.085407
vt 0.942981 0.157461
vt 0.834073 0.157461
vt 0.826127 0.143699
vt 0.698764 0.049379
vt 0.761164 0.157461
vt 0.652254 0.157461
vt 0.644308 0.143701
vt 0.462490 0.143701
vt 0.516946 0.049380
vt 0.579347 0.157461
vt 0.470436 0.157461
vt 0.119418 0.206838
vt 0.173873 0.301159
vt 0.165930 0.314921
vt 0.057017 0.314921
vt 0.846691 0.206840
vt 0.901146 0.301160
vt 0.893202 0.314921
vt 0.784290 0.314921
vt 0.735218 0.301160
vt 0.789673 0.206840
vt 0.852074 0.314921
vt 0.743162 0.314921
vt 0.553401 0.301159
vt 0.607856 0.206838
vt 0.670256 0.314921
vt 0.561344 0.314921
vt 0.301236 0.206838
vt 0.355691 0.301158
vt 0.347745 0.314921
vt 0.238836 0.314921
vt 0.880583 0.364300
vt 0.826127 0.458620
vt 0.810237 0.458620
vt 0.755781 0.364300
vt 0.244220 0.108084
vt 0.483054 0.108084
vt 0.664872 0.108083
vt 0.937599 0.265543
vt 0.971491 0.206841
vt 0.119419 0.423002
vt 0.153310 0.364300
vt 0.301236 0.423003
vt 0.335128 0.364301
vt 0.846691 0.423003
vt 0.789673 0.423003
vt 0.573964 0.364300
vt 0.607855 0.423002
s 0
f 121/1/1 122/2/1 7/2/1 11/1/1
f 122/2/2 121/1/2 12/1/2 8/2/2
f 122/2/3 123/3/3 53/3/3 7/2/3
f 123/3/4 122/2/4 8/2/4 54/3/4
f 123/3/5 121/1/5 11/1/5 53/3/5
f 121/1/6 123/3/6 54/3/6 12/1/6
f 124/4/7 125/5/7 31/5/7 3/4/7
f 125/5/8 124/4/8 4/4/8 32/5/8
f 125/5/9 126/6/9 43/6/9 31/5/9
f 126/6/10 125/5/10 32/5/10 44/6/10
f 126/6/11 124/4/11 3/4/11 43/6/11
f 124/4/12 126/6/12 44/6/12 4/4/12
f 127/7/13 128/8/13 19/8/13 9/7/13
f 128/8/14 127/7/14 10/7/14 20/8/14
f 128/8/15 129/9/15 23/9/15 19/8/15
f 129/9/16 128/8/16 20/8/16 24/9/16
f 129/9/17 127/7/17 9/7/17 23/9/17
f 127/7/18 129/9/18 24/9/18 10/7/18
f 130/10/19 131/11/19 41/11/19 5/10/19
f 131/11/20 130/10/20 6/10/20 42/11/20
f 131/11/21 132/12/21 55/12/21 41/11/21
f 132/12/22 131/11/22 42/11/22 56/12/22
f 132/12/23 130/10/23 5/10/23 55/12/23
f 130/10/24 132/12/24 56/12/24 6/10/24
f 133/13/25 134/14/25 17/14/25 25/13/25
f 134/14/26 133/13/26 26/13/26 18/14/26
f 134/14/27 135/15/27 63/15/27 17/14/27
f 135/15/28 134/14/28 18/14/28 64/15/28
f 135/15/29 133/13/29 25/13/29 63/15/29
f 133/13/30 135/15/30 64/15/30 26/13/30
f 136/16/31 137/17/31 101/17/31 15/16/31
f 137/17/32 136/16/32 16/16/32 102/17/32
f 137/17/33 138/18/33 65/18/33 101/17/33
f 138/18/34 137/17/34 102/17/34 66/18/34
f 138/18/35 136/16/35 15/16/35 65/18/35
f 136/16/36 138/18/36 66/18/36 16/16/36
f 139/19/37 140/20/37 51/20/37 13/19/37
f 140/20/38 139/19/38 14/19/38 52/20/38
f 140/20/39 141/21/39 103/21/39 51/20/39
f 141/21/40 140/20/40 52/20/40 104/21/40
f 141/21/41 139/19/41 13/19/41 103/21/41
f 139/19/42 141/21/42 104/21/42 14/19/42
f 142/22/43 143/23/43 61/23/43 27/22/43
f 143/23/44 142/22/44 28/22/44 62/23/44
f 143/23/45 144/24/45 75/24/45 61/23/45
f 144/24/46 143/23/46 62/23/46 76/24/46
f 144/24/47 142/22/47 27/22/47 75/24/47
f 142/22/48 144/24/48 76/24/48 28/22/48
f 145/25/49 146/26/49 71/26/49 37/25/49
f 146/26/50 145/25/50 38/25/50 72/26/50
f 146/26/51 147/27/51 85/27/51 71/26/51
f 147/27/52 146/26/52 72/26/52 86/27/52
f 147/27/53 145/25/53 37/25/53 85/27/53
f 145/25/54 147/27/54 86/27/54 38/25/54
f 148/28/55 149/29/55 81/29/55 47/28/55
f 149/29/56 148/28/56 48/28/56 82/29/56
f 149/29/57 150/30/57 95/30/57 81/29/57
f 150/30/58 149/29/58 82/29/58 96/30/58
f 150/30/59 148/28/59 47/28/59 95/30/59
f 148/28/60 150/30/60 96/30/60 48/28/60
f 151/31/61 152/32/61 29/32/61 35/31/61
f 152/32/62 151/31/62 36/31/62 30/32/62
f 152/32/63 153/33/63 73/33/63 29/32/63
f 153/33/64 152/32/64 30/32/64 74/33/64
f 153/33/65 151/31/65 35/31/65 73/33/65
f 151/31/66 153/33/66 74/33/66 36/31/66
f 154/34/67 155/35/67 39/35/67 45/34/67
f 155/35/68 154/34/68 46/34/68 40/35/68
f 155/35/69 156/36/69 83/36/69 39/35/69
f 156/36/70 155/35/70 40/35/70 84/36/70
f 156/36/71 154/34/71 45/34/71 83/36/71
f 154/34/72 156/36/72 84/36/72 46/34/72
f 157/37/73 158/38/73 49/38/73 57/37/73
f 158/38/74 157/37/74 58/37/74 50/38/74
f 158/38/75 159/39/75 93/39/75 49/38/75
f 159/39/76 158/38/76 50/38/76 94/39/76
f 159/39/77 157/37/77 57/37/77 93/39/77
f 157/37/78 159/39/78 94/39/78 58/37/78
f 160/40/79 161/41/79 91/41/79 59/40/79
f 161/41/80 160/40/80 60/40/80 92/41/80
f 161/41/81 162/42/81 105/42/81 91/41/81
f 162/42/82 161/41/82 92/41/82 106/42/82
f 162/42/83 160/40/83 59/40/83 105/42/83
f 160/40/84 162/42/84 106/42/84 60/40/84
f 163/43/85 164/44/85 109/44/85 67/43/85
f 164/44/86 163/43/86 68/43/86 110/44/86
f 164/44/87 165/45/87 113/45/87 109/44/87
f 165/45/88 164/44/88 110/44/88 114/45/88
f 165/45/89 163/43/89 67/43/89 113/45/89
f 163/43/90 165/45/90 114/45/90 68/43/90
f 166/46/91 167/47/91 69/47/91 77/46/91
f 167/47/92 166/46/92 78/46/92 70/47/92
f 167/47/93 168/48/93 111/48/93 69/47/93
f 168/48/94 167/47/94 70/47/94 112/48/94
f 168/48/95 166/46/95 77/46/95 111/48/95
f 166/46/96 168/48/96 112/48/96 78/46/96
f 169/49/97 170/50/97 79/50/97 87/49/97
f 170/50/98 169/49/98 88/49/98 80/50/98
f 170/50/99 171/51/99 119/51/99 79/50/99
f 171/51/100 170/50/100 80/50/100 120/51/100
f 171/51/101 169/49/101 87/49/101 119/51/101
f 169/49/102 171/51/102 120/51/102 88/49/102
f 172/52/103 173/53/103 89/53/103 97/52/103
f 173/53/104 172/52/104 98/52/104 90/53/104
f 173/53/105 174/54/105 117/54/105 89/53/105
f 174/54/106 173/53/106 90/53/106 118/54/106
f 174/54/107 172/52/107 97/52/107 117/54/107
f 172/52/108 174/54/108 118/54/108 98/52/108
f 175/55/109 176/56/109 99/56/109 107/55/109
f 176/56/110 175/55/110 108/55/110 100/56/110
f 176/56/111 177/57/111 115/57/111 99/56/111
f 177/57/112 176/56/112 100/56/112 116/57/112
f 177/57/113 175/55/113 107/55/113 115/57/113
f 175/55/114 177/57/114 116/57/114 108/55/114
f 178/58/115 179/59/115 3/59/115 1/58/115
f 179/59/116 178/58/116 2/58/116 4/59/116
f 179/59/117 180/60/117 5/60/117 3/59/117
f 180/60/118 179/59/118 4/59/118 6/60/118
f 180/60/119 181/61/119 7/61/119 5/60/119
f 181/61/120 180/60/120 6/60/120 8/61/120
f 181/61/121 182/62/121 9/62/121 7/61/121
f 182/62/122 181/61/122 8/61/122 10/62/122
f 182/62/123 178/58/123 1/58/123 9/62/123
f 178/58/124 182/62/124 10/62/124 2/58/124
f 183/63/125 184/64/125 13/64/125 11/63/125
f 184/64/126 183/63/126 12/63/126 14/64/126
f 184/64/127 185/65/127 15/65/127 13/64/127
f 185/65/128 184/64/128 14/64/128 16/65/128
f 185/65/129 186/66/129 17/66/129 15/65/129
f 186/66/130 185/65/130 16/65/130 18/66/130
f 186/66/131 187/8/131 19/8/131 17/66/131
f 187/8/132 186/66/132 18/66/132 20/8/132
f 187/8/133 183/63/133 11/63/133 19/8/133
f 183/63/134 187/8/134 20/8/134 12/63/134
f 188/67/135 189/68/135 23/68/135 21/67/135
f 189/68/136 188/67/136 22/67/136 24/68/136
f 189/68/137 190/69/137 25/69/137 23/68/137
f 190/69/138 189/68/138 24/68/138 26/69/138
f 190/69/139 191/70/139 27/70/139 25/69/139
f 191/70/140 190/69/140 26/69/140 28/70/140
f 191/70/141 192/71/141 29/71/141 27/70/141
f 192/71/142 191/70/142 28/70/142 30/71/142
f 192/71/143 188/67/143 21/67/143 29/71/143
f 188/67/144 192/71/144 30/71/144 22/67/144
f 193/72/145 194/73/145 33/73/145 31/72/145
f 194/73/146 193/72/146 32/72/146 34/73/146
f 194/73/147 195/74/147 35/74/147 33/73/147
f 195/74/148 194/73/148 34/73/148 36/74/148
f 195/74/149 196/75/149 37/75/149 35/74/149
f 196/75/150 195/74/150 36/74/150 38/75/150
f 196/75/151 197/76/151 39/76/151 37/75/151
f 197/76/152 196/75/152 38/75/152 40/76/152
f 197/76/153 193/72/153 31/72/153 39/76/153
f 193/72/154 197/76/154 40/76/154 32/72/154
f 198/77/155 199/6/155 43/6/155 41/77/155
f 199/6/156 198/77/156 42/77/156 44/6/156
f 199/6/157 200/78/157 45/78/157 43/6/157
f 200/78/158 199/6/158 44/6/158 46/78/158
f 200/78/159 201/79/159 47/79/159 45/78/159
f 201/79/160 200/78/160 46/78/160 48/79/160
f 201/79/161 202/80/161 49/80/161 47/79/161
f 202/80/162 201/79/162 48/79/162 50/80/162
f 202/80/163 198/77/163 41/77/163 49/80/163
f 198/77/164 202/80/164 50/80/164 42/77/164
f 203/81/165 204/82/165 53/82/165 51/81/165
f 204/82/166 203/81/166 52/81/166 54/82/166
f 204/82/167 205/12/167 55/12/167 53/82/167
f 205/12/168 204/82/168 54/82/168 56/12/168
f 205/12/169 206/83/169 57/83/169 55/12/169
f 206/83/170 205/12/170 56/12/170 58/83/170
f 206/83/171 207/84/171 59/84/171 57/83/171
f 207/84/172 206/83/172 58/83/172 60/84/172
f 207/84/173 203/81/173 51/81/173 59/84/173
f 203/81/174 207/84/174 60/84/174 52/81/174
f 208/23/175 209/85/175 63/85/175 61/23/175
f 209/85/176 208/23/176 62/23/176 64/85/176
f 209/85/177 210/86/177 65/86/177 63/85/177
f 210/86/178 209/85/178 64/85/178 66/86/178
f 210/86/179 211/87/179 67/87/179 65/86/179
f 211/87/180 210/86/180 66/86/180 68/87/180
f 211/87/181 212/88/181 69/88/181 67/87/181
f 212/88/182 211/87/182 68/87/182 70/88/182
f 212/88/183 208/23/183 61/23/183 69/88/183
f 208/23/184 212/88/184 70/88/184 62/23/184
f 213/26/185 214/89/185 73/89/185 71/26/185
f 214/89/186 213/26/186 72/26/186 74/89/186
f 214/89/187 215/90/187 75/90/187 73/89/187
f 215/90/188 214/89/188 74/89/188 76/90/188
f 215/90/189 216/91/189 77/91/189 75/90/189
f 216/91/190 215/90/190 76/90/190 78/91/190
f 216/91/191 217/92/191 79/92/191 77/91/191
f 217/92/192 216/91/192 78/91/192 80/92/192
f 217/92/193 213/26/193 71/26/193 79/92/193
f 213/26/194 217/92/194 80/92/194 72/26/194
f 218/93/195 219/94/195 83/94/195 81/93/195
f 219/94/196 218/93/196 82/93/196 84/94/196
f 219/94/197 220/27/197 85/27/197 83/94/197
f 220/27/198 219/94/198 84/94/198 86/27/198
f 220/27/199 221/95/199 87/95/199 85/27/199
f 221/95/200 220/27/200 86/27/200 88/95/200
f 221/95/201 222/96/201 89/96/201 87/95/201
f 222/96/202 221/95/202 88/95/202 90/96/202
f 222/96/203 218/93/203 81/93/203 89/96/203
f 218/93/204 222/96/204 90/96/204 82/93/204
f 223/97/205 224/98/205 93/98/205 91/97/205
f 224/98/206 223/97/206 92/97/206 94/98/206
f 224/98/207 225/30/207 95/30/207 93/98/207
f 225/30/208 224/98/208 94/98/208 96/30/208
f 225/30/209 226/99/209 97/99/209 95/30/209
f 226/99/210 225/30/210 96/30/210 98/99/210
f 226/99/211 227/100/211 99/100/211 97/99/211
f 227/100/212 226/99/212 98/99/212 100/100/212
f 227/100/213 223/97/213 91/97/213 99/100/213
f 223/97/214 227/100/214 100/100/214 92/97/214
f 228/17/215 229/101/215 103/101/215 101/17/215
f 229/101/216 228/17/216 102/17/216 104/101/216
f 229/101/217 230/102/217 105/102/217 103/101/217
f 230/102/218 229/101/218 104/101/218 106/102/218
f 230/102/219 231/103/219 107/103/219 105/102/219
f 231/103/220 230/102/220 106/102/220 108/103/220
f 231/103/221 232/104/221 109/104/221 107/103/221
f 232/104/222 231/103/222 108/103/222 110/104/222
f 232/104/223 228/17/223 101/17/223 109/104/223
f 228/17/224 232/104/224 110/104/224 102/17/224
f 233/105/225 234/106/225 113/106/225 111/105/225
f 234/106/226 233/105/226 112/105/226 114/106/226
f 234/106/227 235/107/227 115/107/227 113/106/227
f 235/107/228 234/106/228 114/106/228 116/107/228
f 235/107/229 236/108/229 117/108/229 115/107/229
f 236/108/230 235/107/230 116/107/230 118/108/230
f 236/108/231 237/51/231 119/51/231 117/108/231
f 237/51/232 236/108/232 118/108/232 120/51/232
f 237/51/233 233/105/233 111/105/233 119/51/233
f 233/105/234 237/51/234 120/51/234 112/105/234
f 238/67/235 239/58/235 1/58/235 21/67/235
f 239/58/236 238/67/236 22/67/236 2/58/236
f 239/58/237 240/62/237 9/62/237 1/58/237
f 240/62/238 239/58/238 2/58/238 10/62/238
f 240/62/239 241/68/239 23/68/239 9/62/239
f 241/68/240 240/62/240 10/62/240 24/68/240
f 241/68/241 238/67/241 21/67/241 23/68/241
f 238/67/242 241/68/242 24/68/242 22/67/242
f 242/109/243 243/63/243 11/63/243 7/109/243
f 243/63/244 242/109/244 8/109/244 12/63/244
f 243/63/245 244/8/245 19/8/245 11/63/245
f 244/8/246 243/63/246 12/63/246 20/8/246
f 244/8/247 245/7/247 9/7/247 19/8/247
f 245/7/248 244/8/248 20/8/248 10/7/248
f 245/7/249 242/109/249 7/109/249 9/7/249
f 242/109/250 245/7/250 10/7/250 8/109/250
f 246/14/251 247/13/251 25/13/251 17/14/251
f 247/13/252 246/14/252 18/14/252 26/13/252
f 247/13/253 248/9/253 23/9/253 25/13/253
f 248/9/254 247/13/254 26/13/254 24/9/254
f 248/9/255 249/8/255 19/8/255 23/9/255
f 249/8/256 248/9/256 24/9/256 20/8/256
f 249/8/257 246/14/257 17/14/257 19/8/257
f 246/14/258 249/8/258 20/8/258 18/14/258
f 250/20/259 251/19/259 13/19/259 51/20/259
f 251/19/260 250/20/260 52/20/260 14/19/260
f 251/19/261 252/1/261 11/1/261 13/19/261
f 252/1/262 251/19/262 14/19/262 12/1/262
f 252/1/263 253/3/263 53/3/263 11/1/263
f 253/3/264 252/1/264 12/1/264 54/3/264
f 253/3/265 250/20/265 51/20/265 53/3/265
f 250/20/266 253/3/266 54/3/266 52/20/266
f 254/10/267 255/12/267 55/12/267 5/10/267
f 255/12/268 254/10/268 6/10/268 56/12/268
f 255/12/269 256/82/269 53/82/269 55/12/269
f 256/82/270 255/12/270 56/12/270 54/82/270
f 256/82/271 257/110/271 7/110/271 53/82/271
f 257/110/272 256/82/272 54/82/272 8/110/272
f 257/110/273 254/10/273 5/10/273 7/110/273
f 254/10/274 257/110/274 8/110/274 6/10/274
f 258/72/275 259/59/275 3/59/275 31/72/275
f 259/59/276 258/72/276 32/72/276 4/59/276
f 259/59/277 260/58/277 1/58/277 3/59/277
f 260/58/278 259/59/278 4/59/278 2/58/278
f 260/58/279 261/73/279 33/73/279 1/58/279
f 261/73/280 260/58/280 2/58/280 34/73/280
f 261/73/281 258/72/281 31/72/281 33/73/281
f 258/72/282 261/73/282 34/73/282 32/72/282
f 262/32/283 263/31/283 35/31/283 29/32/283
f 263/31/284 262/32/284 30/32/284 36/31/284
f 263/31/285 264/73/285 33/73/285 35/31/285
f 264/73/286 263/31/286 36/31/286 34/73/286
f 264/73/287 265/67/287 21/67/287 33/73/287
f 265/67/288 264/73/288 34/73/288 22/67/288
f 265/67/289 262/32/289 29/32/289 21/67/289
f 262/32/290 265/67/290 22/67/290 30/32/290
f 266/77/291 267/111/291 5/111/291 41/77/291
f 267/111/292 266/77/292 42/77/292 6/111/292
f 267/111/293 268/4/293 3/4/293 5/111/293
f 268/4/294 267/111/294 6/111/294 4/4/294
f 268/4/295 269/6/295 43/6/295 3/4/295
f 269/6/296 268/4/296 4/4/296 44/6/296
f 269/6/297 266/77/297 41/77/297 43/6/297
f 266/77/298 269/6/298 44/6/298 42/77/298
f 270/35/299 271/34/299 45/34/299 39/35/299
f 271/34/300 270/35/300 40/35/300 46/34/300
f 271/34/301 272/6/301 43/6/301 45/34/301
f 272/6/302 271/34/302 46/34/302 44/6/302
f 272/6/303 273/5/303 31/5/303 43/6/303
f 273/5/304 272/6/304 44/6/304 32/5/304
f 273/5/305 270/35/305 39/35/305 31/5/305
f 270/35/306 273/5/306 32/5/306 40/35/306
f 274/38/307 275/37/307 57/37/307 49/38/307
f 275/37/308 274/38/308 50/38/308 58/37/308
f 275/37/309 276/12/309 55/12/309 57/37/309
f 276/12/310 275/37/310 58/37/310 56/12/310
f 276/12/311 277/11/311 41/11/311 55/12/311
f 277/11/312 276/12/312 56/12/312 42/11/312
f 277/11/313 274/38/313 49/38/313 41/11/313
f 274/38/314 277/11/314 42/11/314 50/38/314
f 278/17/315 279/16/315 15/16/315 101/17/315
f 279/16/316 278/17/316 102/17/316 16/16/316
f 279/16/317 280/19/317 13/19/317 15/16/317
f 280/19/318 279/16/318 16/16/318 14/19/318
f 280/19/319 281/21/319 103/21/319 13/19/319
f 281/21/320 280/19/320 14/19/320 104/21/320
f 281/21/321 278/17/321 101/17/321 103/21/321
f 278/17/322 281/21/322 104/21/322 102/17/322
f 282/40/323 283/42/323 105/42/323 59/40/323
f 283/42/324 282/40/324 60/40/324 106/42/324
f 283/42/325 284/21/325 103/21/325 105/42/325
f 284/21/326 283/42/326 106/42/326 104/21/326
f 284/21/327 285/20/327 51/20/327 103/21/327
f 285/20/328 284/21/328 104/21/328 52/20/328
f 285/20/329 282/40/329 59/40/329 51/20/329
f 282/40/330 285/20/330 52/20/330 60/40/330
f 286/23/331 287/22/331 27/22/331 61/23/331
f 287/22/332 286/23/332 62/23/332 28/22/332
f 287/22/333 288/13/333 25/13/333 27/22/333
f 288/13/334 287/22/334 28/22/334 26/13/334
f 288/13/335 289/15/335 63/15/335 25/13/335
f 289/15/336 288/13/336 26/13/336 64/15/336
f 289/15/337 286/23/337 61/23/337 63/15/337
f 286/23/338 289/15/338 64/15/338 62/23/338
f 290/16/339 291/18/339 65/18/339 15/16/339
f 291/18/340 290/16/340 16/16/340 66/18/340
f 291/18/341 292/15/341 63/15/341 65/18/341
f 292/15/342 291/18/342 66/18/342 64/15/342
f 292/15/343 293/14/343 17/14/343 63/15/343
f 293/14/344 292/15/344 64/15/344 18/14/344
f 293/14/345 290/16/345 15/16/345 17/14/345
f 290/16/346 293/14/346 18/14/346 16/16/346
f 294/26/347 295/25/347 37/25/347 71/26/347
f 295/25/348 294/26/348 72/26/348 38/25/348
f 295/25/349 296/31/349 35/31/349 37/25/349
f 296/31/350 295/25/350 38/25/350 36/31/350
f 296/31/351 297/33/351 73/33/351 35/31/351
f 297/33/352 296/31/352 36/31/352 74/33/352
f 297/33/353 294/26/353 71/26/353 73/33/353
f 294/26/354 297/33/354 74/33/354 72/26/354
f 298/112/355 299/113/355 75/113/355 27/112/355
f 299/113/356 298/112/356 28/112/356 76/113/356
f 299/113/357 300/33/357 73/33/357 75/113/357
f 300/33/358 299/113/358 76/113/358 74/33/358
f 300/33/359 301/32/359 29/32/359 73/33/359
f 301/32/360 300/33/360 74/33/360 30/32/360
f 301/32/361 298/112/361 27/112/361 29/32/361
f 298/112/362 301/32/362 30/32/362 28/112/362
f 302/29/363 303/28/363 47/28/363 81/29/363
f 303/28/364 302/29/364 82/29/364 48/28/364
f 303/28/365 304/34/365 45/34/365 47/28/365
f 304/34/366 303/28/366 48/28/366 46/34/366
f 304/34/367 305/36/367 83/36/367 45/34/367
f 305/36/368 304/34/368 46/34/368 84/36/368
f 305/36/369 302/29/369 81/29/369 83/36/369
f 302/29/370 305/36/370 84/36/370 82/29/370
f 306/25/371 307/27/371 85/27/371 37/25/371
f 307/27/372 306/25/372 38/25/372 86/27/372
f 307/27/373 308/36/373 83/36/373 85/27/373
f 308/36/374 307/27/374 86/27/374 84/36/374
f 308/36/375 309/35/375 39/35/375 83/36/375
f 309/35/376 308/36/376 84/36/376 40/35/376
f 309/35/377 306/25/377 37/25/377 39/35/377
f 306/25/378 309/35/378 40/35/378 38/25/378
f 310/41/379 311/40/379 59/40/379 91/41/379
f 311/40/380 310/41/380 92/41/380 60/40/380
f 311/40/381 312/37/381 57/37/381 59/40/381
f 312/37/382 311/40/382 60/40/382 58/37/382
f 312/37/383 313/39/383 93/39/383 57/37/383
f 313/39/384 312/37/384 58/37/384 94/39/384
f 313/39/385 310/41/385 91/41/385 93/39/385
f 310/41/386 313/39/386 94/39/386 92/41/386
f 314/28/387 315/30/387 95/30/387 47/28/387
f 315/30/388 314/28/388 48/28/388 96/30/388
f 315/30/389 316/39/389 93/39/389 95/30/389
f 316/39/390 315/30/390 96/30/390 94/39/390
f 316/39/391 317/38/391 49/38/391 93/39/391
f 317/38/392 316/39/392 94/39/392 50/38/392
f 317/38/393 314/28/393 47/28/393 49/38/393
f 314/28/394 317/38/394 50/38/394 48/28/394
f 318/44/395 319/43/395 67/43/395 109/44/395
f 319/43/396 318/44/396 110/44/396 68/43/396
f 319/43/397 320/18/397 65/18/397 67/43/397
f 320/18/398 319/43/398 68/43/398 66/18/398
f 320/18/399 321/17/399 101/17/399 65/18/399
f 321/17/400 320/18/400 66/18/400 102/17/400
f 321/17/401 318/44/401 109/44/401 101/17/401
f 318/44/402 321/17/402 102/17/402 110/44/402
f 322/47/403 323/46/403 77/46/403 69/47/403
f 323/46/404 322/47/404 70/47/404 78/46/404
f 323/46/405 324/24/405 75/24/405 77/46/405
f 324/24/406 323/46/406 78/46/406 76/24/406
f 324/24/407 325/23/407 61/23/407 75/24/407
f 325/23/408 324/24/408 76/24/408 62/23/408
f 325/23/409 322/47/409 69/47/409 61/23/409
f 322/47/410 325/23/410 62/23/410 70/47/410
f 326/50/411 327/49/411 87/49/411 79/50/411
f 327/49/412 326/50/412 80/50/412 88/49/412
f 327/49/413 328/27/413 85/27/413 87/49/413
f 328/27/414 327/49/414 88/49/414 86/27/414
f 328/27/415 329/26/415 71/26/415 85/27/415
f 329/26/416 328/27/416 86/27/416 72/26/416
f 329/26/417 326/50/417 79/50/417 71/26/417
f 326/50/418 329/26/418 72/26/418 80/50/418
f 330/53/419 331/52/419 97/52/419 89/53/419
f 331/52/420 330/53/420 90/53/420 98/52/420
f 331/52/421 332/30/421 95/30/421 97/52/421
f 332/30/422 331/52/422 98/52/422 96/30/422
f 332/30/423 333/29/423 81/29/423 95/30/423
f 333/29/424 332/30/424 96/30/424 82/29/424
f 333/29/425 330/53/425 89/53/425 81/29/425
f 330/53/426 333/29/426 82/29/426 90/53/426
f 334/56/427 335/55/427 107/55/427 99/56/427
f 335/55/428 334/56/428 100/56/428 108/55/428
f 335/55/429 336/42/429 105/42/429 107/55/429
f 336/42/430 335/55/430 108/55/430 106/42/430
f 336/42/431 337/41/431 91/41/431 105/42/431
f 337/41/432 336/42/432 106/42/432 92/41/432
f 337/41/433 334/56/433 99/56/433 91/41/433
f 334/56/434 337/41/434 92/41/434 100/56/434
f 338/48/435 339/47/435 69/47/435 111/48/435
f 339/47/436 338/48/436 112/48/436 70/47/436
f 339/47/437 340/114/437 67/114/437 69/47/437
f 340/114/438 339/47/438 70/47/438 68/114/438
f 340/114/439 341/115/439 113/115/439 67/114/439
f 341/115/440 340/114/440 68/114/440 114/115/440
f 341/115/441 338/48/441 111/48/441 113/115/441
f 338/48/442 341/115/442 114/115/442 112/48/442
f 342/116/443 343/117/443 115/117/443 107/116/443
f 343/117/444 342/116/444 108/116/444 116/117/444
f 343/117/445 344/45/445 113/45/445 115/117/445
f 344/45/446 343/117/446 116/117/446 114/45/446
f 344/45/447 345/44/447 109/44/447 113/45/447
f 345/44/448 344/45/448 114/45/448 110/44/448
f 345/44/449 342/116/449 107/116/449 109/44/449
f 342/116/450 345/44/450 110/44/450 108/116/450
f 346/51/451 347/50/451 79/50/451 119/51/451
f 347/50/452 346/51/452 120/51/452 80/50/452
f 347/50/453 348/118/453 77/118/453 79/50/453
f 348/118/454 347/50/454 80/50/454 78/118/454
f 348/118/455 349/105/455 111/105/455 77/118/455
f 349/105/456 348/118/456 78/118/456 112/105/456
f 349/105/457 346/51/457 119/51/457 111/105/457
f 346/51/458 349/105/458 112/105/458 120/51/458
f 350/108/459 351/119/459 89/119/459 117/108/459
f 351/119/460 350/108/460 118/108/460 90/119/460
f 351/119/461 352/49/461 87/49/461 89/119/461
f 352/49/462 351/119/462 90/119/462 88/49/462
f 352/49/463 353/51/463 119/51/463 87/49/463
f 353/51/464 352/49/464 88/49/464 120/51/464
f 353/51/465 350/108/465 117/108/465 119/51/465
f 350/108/466 353/51/466 120/51/466 118/108/466
f 354/120/467 355/121/467 99/121/467 115/120/467
f 355/121/468 354/120/468 116/120/468 100/121/468
f 355/121/469 356/52/469 97/52/469 99/121/469
f 356/52/470 355/121/470 100/121/470 98/52/470
f 356/52/471 357/54/471 117/54/471 97/52/471
f 357/54/472 356/52/472 98/52/472 118/54/472
f 357/54/473 354/120/473 115/120/473 117/54/473
f 354/120/474 357/54/474 118/54/474 116/120/474
f 358/58/475 359/67/475 21/67/475 1/58/475
f 359/67/476 358/58/476 2/58/476 22/67/476
f 359/67/477 360/73/477 33/73/477 21/67/477
f 360/73/478 359/67/478 22/67/478 34/73/478
f 360/73/479 358/58/479 1/58/479 33/73/479
f 358/58/480 360/73/480 34/73/480 2/58/480
