# Blender 4.0.2
# www.blender.org
mtllib 3.mtl
o Icosphere
v -0.499644 -0.530862 2.838742
v -0.484531 -0.518206 2.845502
v -0.522657 -0.530862 -2.716145
v -0.506932 -0.518206 -2.730188
v 0.198537 -0.520864 -4.566148
v 0.200153 -0.528197 -4.425033
v 4.425883 -0.517456 4.683630
v 4.412277 -0.531600 4.654316
v 0.184347 -0.520864 4.583337
v 0.186273 -0.528197 4.442545
v 2.977655 -0.692882 0.869624
v 2.976044 -0.677015 0.961463
v 5.657244 -0.065387 6.568130
v 5.674682 -0.059726 6.505725
v 0.587718 0.332094 3.426743
v 0.588721 0.312121 3.427273
v 0.105197 -0.063912 6.107907
v 0.087176 -0.061200 6.151772
v -0.016446 -0.692943 3.298270
v -0.017910 -0.676956 3.389004
v -3.007131 -0.675448 3.058613
v -3.000952 -0.694449 3.054912
v 0.273890 -0.691422 2.659275
v 0.259566 -0.678476 2.626856
v 0.382864 -0.066473 5.456696
v 0.365550 -0.058639 5.432045
v -0.228073 0.328493 5.433486
v -0.213639 0.315731 5.410460
v -0.719261 -0.054367 2.793265
v -0.718020 -0.070744 2.706464
v -0.255175 -0.679844 -2.819412
v -0.243747 -0.690053 -2.719991
v -0.243720 -0.679844 2.848608
v -0.233186 -0.690053 2.746671
v -0.531428 -0.057422 4.633861
v -0.538179 -0.067689 4.514495
v -5.278276 0.312161 6.717843
v -5.276496 0.332072 6.713178
v -0.572242 -0.057422 -4.490954
v -0.578375 -0.067689 -4.368233
v 0.285867 -0.691422 -2.622529
v 0.270782 -0.678476 -2.593863
v -3.051443 -0.675448 1.284614
v -3.045427 -0.694449 1.270689
v -0.751052 -0.054367 -2.539592
v -0.748709 -0.070744 -2.454027
v -0.249023 0.328493 -5.406792
v -0.233183 0.315732 -5.387047
v 0.418033 -0.066473 -5.381453
v 0.398989 -0.058639 -5.363484
v 5.556523 -0.065387 8.648983
v 5.564225 -0.059726 8.781943
v 2.919977 -0.692882 3.243992
v 2.922775 -0.677015 3.153817
v -0.017349 -0.692943 -3.298137
v -0.018921 -0.676956 -3.388842
v 0.116144 -0.063912 -6.102168
v 0.096317 -0.061200 -6.147828
v 0.620440 0.332094 -3.255494
v 0.621502 0.312121 -3.255436
v -0.382864 0.066473 5.456696
v -0.365550 0.058639 5.432045
v 0.228073 -0.328493 5.433486
v 0.213639 -0.315731 5.410460
v 0.719261 0.054367 2.793265
v 0.718020 0.070744 2.706464
v 3.007131 0.675448 3.058613
v 3.000952 0.694449 3.054912
v -0.273890 0.691422 2.659275
v -0.259566 0.678476 2.626856
v -5.657244 0.065387 6.568130
v -5.674682 0.059726 6.505725
v -0.587718 -0.332094 3.426743
v -0.588721 -0.312121 3.427273
v -0.105197 0.063912 6.107907
v -0.087176 0.061200 6.151772
v 0.016446 0.692943 3.298270
v 0.017910 0.676956 3.389004
v -2.977655 0.692882 0.869624
v -2.976044 0.677015 0.961463
v -0.116144 0.063912 -6.102168
v -0.096317 0.061200 -6.147828
v -0.620440 -0.332094 -3.255494
v -0.621502 -0.312121 -3.255436
v -5.556523 0.065387 8.648983
v -5.564225 0.059726 8.781943
v -2.919977 0.692882 3.243992
v -2.922775 0.677015 3.153817
v 0.017349 0.692943 -3.298137
v 0.018921 0.676956 -3.388842
v 0.751052 0.054367 -2.539592
v 0.748709 0.070744 -2.454027
v 0.249023 -0.328493 -5.406791
v 0.233183 -0.315732 -5.387048
v -0.418033 0.066473 -5.381453
v -0.398989 0.058639 -5.363484
v -0.285867 0.691422 -2.622529
v -0.270782 0.678476 -2.593863
v 3.051443 0.675448 1.284614
v 3.045427 0.694449 1.270689
v 0.531428 0.057422 4.633861
v 0.538179 0.067689 4.514495
v 5.278276 -0.312161 6.717843
v 5.276496 -0.332072 6.713178
v 0.572242 0.057422 -4.490954
v 0.578375 0.067689 -4.368233
v 0.255175 0.679844 -2.819412
v 0.243747 0.690053 -2.719991
v 0.243720 0.679844 2.848608
v 0.233186 0.690053 2.746671
v -0.184347 0.520864 4.583337
v -0.186273 0.528197 4.442545
v 0.499644 0.530862 2.838742
v 0.484531 0.518206 2.845502
v 0.522657 0.530862 -2.716145
v 0.506932 0.518206 -2.730188
v -0.198537 0.520864 -4.566148
v -0.200153 0.528197 -4.425033
v -4.425883 0.517456 4.683630
v -4.412277 0.531600 4.654316
v 2.984703 -0.683892 1.012169
v 4.323285 -0.535096 4.464974
v 2.933078 -0.683892 3.129835
v -0.517242 -0.534617 -2.710004
v -0.284989 -0.675048 -2.752766
v -2.741969 -0.675048 0.633157
v 0.180753 -0.536672 4.397503
v 0.001237 -0.678878 3.360347
v 0.252806 -0.678878 2.739581
v 0.194081 -0.536672 -4.381021
v 0.264216 -0.678878 -2.708221
v 0.001306 -0.678878 -3.360346
v 0.357825 -0.072378 5.468570
v 0.111340 -0.072378 6.076288
v 0.221914 -0.302467 5.449234
v 0.591088 0.302463 3.444615
v 0.543669 0.072378 4.461406
v 0.706628 0.072378 2.844101
v 5.653452 -0.068443 6.615706
v 5.557715 -0.068443 8.594116
v 5.300760 -0.304114 6.776861
v -0.221914 0.302467 5.449234
v -0.357825 0.072378 5.468570
v -0.111340 0.072378 6.076288
v -5.300760 0.304114 6.776861
v -5.653452 0.068443 6.615706
v -5.557715 0.068443 8.594116
v -0.242363 0.302467 -5.423952
v -0.122862 0.072378 -6.069857
v -0.390798 0.072378 -5.402834
v -0.543669 -0.072378 4.461406
v -0.706628 -0.072378 2.844101
v -0.591088 -0.302463 3.444615
v -0.738520 -0.072378 -2.599037
v -0.583758 -0.072378 -4.312288
v -0.624169 -0.302463 -3.271350
v 0.122862 -0.072378 -6.069857
v 0.390798 -0.072378 -5.402834
v 0.242363 -0.302467 -5.423952
v 0.624169 0.302463 -3.271350
v 0.738520 0.072378 -2.599037
v 0.583758 0.072378 -4.312288
v 2.692362 0.675048 2.855076
v 0.272474 0.675048 2.789217
v 0.494528 0.534617 2.830100
v -0.001237 0.678878 3.360347
v -0.252806 0.678878 2.739581
v -0.180753 0.536672 4.397503
v -2.933078 0.683892 3.129835
v -2.984703 0.683892 1.012169
v -4.323285 0.535096 4.464974
v -0.264216 0.678878 -2.708221
v -0.001306 0.678878 -3.360346
v -0.194081 0.536672 -4.381021
v 0.284989 0.675048 -2.752766
v 2.741969 0.675048 0.633157
v 0.517242 0.534617 -2.710004
v -0.482539 -0.524534 2.784559
v -0.504353 -0.524534 -2.670305
v 0.200163 -0.524531 -4.417736
v 4.348748 -0.524528 4.518724
v 0.186304 -0.524531 4.435248
v 2.975451 -0.677385 0.965466
v 5.604925 -0.067214 6.396363
v 0.592134 0.313707 3.469238
v 0.101507 -0.065972 6.050063
v -0.006032 -0.676426 3.366856
v -2.929571 -0.675008 2.998666
v 0.258322 -0.676274 2.675524
v 0.364149 -0.065972 5.402509
v -0.219298 0.311056 5.381783
v -0.713992 -0.067539 2.690487
v -0.253920 -0.676004 -2.713895
v -0.242937 -0.676004 2.742856
v -0.541053 -0.071199 4.539092
v -5.199742 0.315569 6.513895
v -0.581688 -0.071199 -4.391211
v 0.269698 -0.676274 -2.642826
v -2.975145 -0.675008 1.124913
v -0.744333 -0.067539 -2.440934
v -0.239245 0.311057 -5.357120
v 0.397271 -0.065972 -5.334506
v 5.502967 -0.067214 8.525557
v 2.922418 -0.677385 3.148474
v -0.006370 -0.676426 -3.366841
v 0.111965 -0.065972 -6.044722
v 0.625520 0.313707 -3.295282
v -0.364149 0.065972 5.402509
v 0.219298 -0.311056 5.381783
v 0.713992 0.067539 2.690487
v 2.929571 0.675008 2.998666
v -0.258322 0.676274 2.675524
v -5.604925 0.067214 6.396363
v -0.592134 -0.313707 3.469238
v -0.101507 0.065972 6.050063
v 0.006032 0.676426 3.366856
v -2.975451 0.677385 0.965466
v -0.111965 0.065972 -6.044722
v -0.625520 -0.313707 -3.295282
v -5.502967 0.067214 8.525557
v -2.922418 0.677385 3.148474
v 0.006370 0.676426 -3.366841
v 0.744333 0.067539 -2.440934
v 0.239245 -0.311057 -5.357120
v -0.397271 0.065972 -5.334506
v -0.269698 0.676274 -2.642826
v 2.975145 0.675008 1.124913
v 0.541053 0.071199 4.539092
v 5.199742 -0.315569 6.513895
v 0.581688 0.071199 -4.391211
v 0.253920 0.676004 -2.713895
v 0.242937 0.676004 2.742856
v -0.186304 0.524531 4.435248
v 0.482539 0.524534 2.784559
v 0.504353 0.524534 -2.670305
v -0.200163 0.524531 -4.417736
v -4.348748 0.524528 4.518724
v -2.718102 -0.675857 2.847995
v -0.490537 -0.521736 2.769553
v 0.178807 -0.529788 4.427276
v 0.253999 -0.679575 2.699112
v 4.344503 -0.528619 4.521087
v 2.975391 -0.681547 0.987258
v 0.002716 -0.678508 3.372036
v 0.189096 -0.531187 4.451925
v 0.103734 -0.071062 6.068624
v 0.363609 -0.071062 5.427892
v 0.258880 -0.676443 2.703641
v -0.006344 -0.676443 3.358106
v 5.554763 -0.064752 8.618622
v 5.653266 -0.064752 6.582414
v 2.984708 -0.682753 1.004015
v 2.932703 -0.682753 3.137473
v 0.203216 -0.531187 -4.433868
v 0.002868 -0.678508 -3.372036
v 2.923378 -0.681547 3.127948
v 4.345273 -0.528619 4.500012
v -0.258001 -0.679691 -2.692606
v -0.505796 -0.529791 -2.649152
v -0.484082 -0.529791 2.764097
v -0.246925 -0.679691 2.722509
v -0.722975 -0.065931 2.822334
v -0.536750 -0.071062 4.489551
v -0.253550 -0.675682 2.817754
v -2.929090 -0.674955 3.004167
v 0.265287 -0.679575 -2.667488
v 0.192085 -0.529788 -4.411146
v -0.512573 -0.521736 -2.651518
v -2.766393 -0.675857 0.705415
v -0.576609 -0.071062 -4.344127
v -0.755270 -0.065931 -2.565909
v -2.974948 -0.674955 1.118463
v -0.265329 -0.675682 -2.786173
v 0.396846 -0.071062 -5.360067
v 0.114455 -0.071062 -6.063047
v -0.006699 -0.676443 -3.358091
v 0.270403 -0.676443 -2.670780
v 0.546248 0.070366 4.529287
v 0.596223 0.312745 3.459018
v 5.638395 -0.069879 6.514113
v 5.275165 -0.312484 6.684629
v 0.629723 0.312745 -3.282692
v 0.587167 0.070366 -4.378581
v 5.273140 -0.312484 6.729468
v 5.537902 -0.069879 8.598164
v -0.361051 0.065805 5.441979
v -0.217750 0.308348 5.421625
v 0.361051 -0.065805 5.441979
v 0.217750 -0.308348 5.421625
v 0.585593 0.308344 3.440809
v 0.707393 0.065805 2.807646
v 0.223398 -0.308348 5.407705
v 0.106823 -0.065805 6.068786
v -5.638395 0.069879 6.514113
v -5.275165 0.312484 6.684629
v -0.546248 -0.070366 4.529287
v -0.596223 -0.312745 3.459018
v -0.223398 0.308348 5.407705
v -0.106823 0.065805 6.068786
v -0.585593 -0.308344 3.440809
v -0.707393 -0.065805 2.807646
v -0.117864 0.065805 -6.062870
v -0.243818 0.308349 -5.382100
v -0.738880 -0.065805 -2.562200
v -0.618344 -0.308344 -3.270751
v -5.273140 0.312484 6.729468
v -5.537902 0.069879 8.598164
v -0.629723 -0.312745 -3.282692
v -0.587167 -0.070366 -4.378581
v 0.738880 0.065805 -2.562200
v 0.618344 0.308344 -3.270751
v 0.117864 -0.065805 -6.062870
v 0.243818 -0.308349 -5.382100
v -0.237711 0.308348 -5.397300
v -0.394147 0.065805 -5.375080
v 0.237711 -0.308348 -5.397300
v 0.394147 -0.065805 -5.375080
v 0.253550 0.675682 2.817754
v 2.929090 0.674955 3.004167
v 0.722975 0.065931 2.822334
v 0.536750 0.071062 4.489551
v -0.258880 0.676443 2.703641
v 0.006344 0.676443 3.358106
v -0.103734 0.071062 6.068624
v -0.363609 0.071062 5.427892
v -2.984708 0.682753 1.004015
v -2.932703 0.682753 3.137473
v -5.554763 0.064752 8.618622
v -5.653266 0.064752 6.582414
v 0.006699 0.676443 -3.358091
v -0.270403 0.676443 -2.670780
v -0.396846 0.071062 -5.360067
v -0.114455 0.071062 -6.063047
v 2.974948 0.674955 1.118463
v 0.265329 0.675682 -2.786173
v 0.576609 0.071062 -4.344127
v 0.755270 0.065931 -2.565909
v -0.178807 0.529788 4.427276
v -0.253999 0.679575 2.699112
v 2.718102 0.675857 2.847995
v 0.490537 0.521736 2.769553
v 0.258001 0.679691 -2.692606
v 0.505796 0.529791 -2.649152
v 0.484082 0.529791 2.764097
v 0.246925 0.679691 2.722509
v -4.344503 0.528619 4.521087
v -2.975391 0.681547 0.987258
v -0.002716 0.678508 3.372036
v -0.189096 0.531187 4.451925
v -0.203216 0.531187 -4.433868
v -0.002868 0.678508 -3.372036
v -2.923378 0.681547 3.127948
v -4.345273 0.528619 4.500012
v 0.512573 0.521736 -2.651518
v 2.766393 0.675857 0.705415
v -0.265287 0.679575 -2.667488
v -0.192085 0.529788 -4.411146
v -0.494528 -0.534617 2.830100
v -2.692362 -0.675048 2.855076
v -0.272474 -0.675048 2.789217
vn -0.0789 0.9968 -0.0142
vn 0.1733 -0.9845 -0.0268
vn -0.1165 0.9932 0.0055
vn 0.0849 -0.9962 0.0171
vn -0.6532 0.7570 -0.0159
vn -0.5741 -0.8187 -0.0140
vn 0.5301 0.8316 0.1658
vn 0.2049 0.4173 -0.8854
vn 0.0424 0.9987 0.0291
vn -0.1548 -0.9817 -0.1110
vn 0.2639 -0.9552 0.1337
vn -0.2141 0.9720 -0.0970
vn -0.3996 0.9148 -0.0584
vn -0.0051 -0.9903 0.1388
vn -0.4135 0.8932 -0.1768
vn -0.0542 -0.9983 -0.0196
vn 0.1975 0.9773 -0.0764
vn 0.8364 -0.5422 0.0807
vn 0.1721 0.9820 0.0774
vn 0.8299 -0.5522 -0.0794
vn -0.4012 0.9001 0.1700
vn -0.0519 -0.9985 0.0188
vn -0.3856 0.9209 0.0576
vn -0.0049 -0.9900 -0.1410
vn -0.4585 0.8675 -0.1927
vn 0.9292 0.0385 0.3675
vn -0.9841 -0.1194 -0.1311
vn 0.4660 -0.8055 0.3660
vn -0.4816 0.3538 -0.8018
vn 0.8613 -0.5080 -0.0095
vn -0.9826 -0.1659 -0.0835
vn 0.8946 0.4251 0.1375
vn -0.9291 -0.3576 -0.0939
vn 0.9246 -0.3697 0.0922
vn -0.9823 -0.1107 -0.1511
vn 0.9525 0.2962 0.0708
vn -0.8996 0.4346 -0.0435
vn 0.4839 -0.8748 0.0235
vn -0.1887 0.9771 -0.0988
vn 0.7102 -0.7039 -0.0075
vn -0.5336 0.8440 0.0540
vn 0.5850 -0.8072 0.0792
vn 0.4817 -0.3538 -0.8018
vn -0.8613 0.5080 -0.0095
vn 0.4585 -0.8675 -0.1927
vn -0.9292 -0.0385 0.3675
vn 0.9841 0.1194 -0.1311
vn -0.4660 0.8055 0.3660
vn 0.5336 -0.8440 0.0540
vn -0.5850 0.8072 0.0792
vn 0.8996 -0.4346 -0.0435
vn -0.4839 0.8748 0.0235
vn 0.1887 -0.9771 -0.0988
vn -0.7102 0.7039 -0.0075
vn 0.9829 0.1186 0.1412
vn -0.4644 0.8079 -0.3629
vn 0.4876 -0.8495 0.2018
vn -0.9242 -0.1173 -0.3635
vn 0.6166 -0.3303 0.7147
vn -0.8397 0.5429 0.0143
vn 0.9291 0.3576 -0.0939
vn -0.9246 0.3697 0.0922
vn 0.9823 0.1107 -0.1511
vn -0.9525 -0.2962 0.0708
vn 0.9826 0.1659 -0.0835
vn -0.8946 -0.4251 0.1375
vn 0.9378 0.3366 0.0851
vn -0.8928 0.4433 -0.0796
vn 0.9821 0.1723 0.0764
vn -0.8971 -0.4228 -0.1280
vn 0.9847 0.1127 0.1325
vn -0.9516 -0.3015 -0.0595
vn -0.4876 0.8495 0.2018
vn 0.9242 0.1173 -0.3635
vn -0.6166 0.3303 0.7147
vn 0.8397 -0.5429 0.0143
vn -0.9829 -0.1186 0.1412
vn 0.4644 -0.8078 -0.3629
vn -0.9847 -0.1127 0.1325
vn 0.9516 0.3015 -0.0595
vn -0.9378 -0.3366 0.0851
vn 0.8928 -0.4433 -0.0796
vn -0.9821 -0.1723 0.0764
vn 0.8971 0.4228 -0.1280
vn 0.0020 0.9998 -0.0220
vn -0.0165 -0.9705 0.2406
vn -0.5034 -0.8487 -0.1619
vn -0.4518 -0.3107 0.8363
vn 0.0660 -0.9911 -0.1152
vn -0.0710 0.9939 0.0847
vn 0.4135 -0.8932 -0.1768
vn 0.0542 0.9983 -0.0196
vn -0.1975 -0.9773 -0.0764
vn -0.8364 0.5422 0.0806
vn 0.3996 -0.9148 -0.0584
vn 0.0051 0.9903 0.1388
vn 0.6532 -0.7570 -0.0159
vn 0.5741 0.8187 -0.0140
vn 0.0789 -0.9968 -0.0142
vn -0.1733 0.9845 -0.0268
vn 0.1165 -0.9932 0.0055
vn -0.0849 0.9962 0.0171
vn 0.4012 -0.9001 0.1700
vn 0.0519 0.9985 0.0188
vn 0.3856 -0.9209 0.0576
vn 0.0049 0.9900 -0.1410
vn -0.1721 -0.9820 0.0774
vn -0.8299 0.5522 -0.0794
vn -0.0424 -0.9987 0.0291
vn 0.1548 0.9817 -0.1110
vn -0.2639 0.9552 0.1337
vn 0.2141 -0.9720 -0.0970
vn -0.5301 -0.8316 0.1658
vn -0.2049 -0.4173 -0.8854
vn -0.3363 0.9418 0.0014
vn -0.9404 -0.3400 0.0038
vn -0.0330 0.9994 -0.0103
vn -0.0943 -0.9949 -0.0358
vn -0.1557 0.9852 0.0715
vn -0.8596 -0.3194 0.3989
vn 0.0003 0.9994 -0.0344
vn 0.0023 -0.9971 -0.0759
vn -0.0327 0.9994 0.0101
vn -0.0947 -0.9949 0.0360
vn 0.7055 0.5840 -0.4015
vn -0.1961 -0.9594 0.2025
vn 0.2097 0.9512 -0.2265
vn -0.2738 -0.8966 0.3481
vn -0.9815 0.0913 -0.1681
vn 0.8486 0.4780 0.2266
vn -0.8846 0.4615 -0.0672
vn 0.5987 -0.7861 0.1536
vn -0.1469 0.9723 -0.1820
vn 0.0146 0.9997 0.0179
vn -0.0464 -0.9182 -0.3933
vn 0.1157 -0.0273 0.9929
vn 0.5806 0.7894 -0.1991
vn 0.9402 -0.3384 0.0393
vn 0.5385 0.8227 -0.1821
vn -0.5339 -0.8130 0.2324
vn 0.1937 0.9656 -0.1737
vn 0.5909 -0.8067 0.0050
vn -0.2825 0.9344 -0.2169
vn 0.2595 -0.9652 -0.0316
vn 0.9665 -0.2566 -0.0019
vn -0.8157 -0.5785 0.0016
vn 0.8143 0.5769 -0.0645
vn -0.3367 -0.9064 0.2551
vn 0.0725 0.9972 -0.0179
vn -0.0402 -0.9945 0.0969
vn 0.2604 0.9624 0.0769
vn -0.4885 0.8398 -0.2370
vn 0.8059 0.5890 0.0607
vn -0.3789 -0.8902 -0.2530
vn 0.1657 0.9762 0.1399
vn -0.2082 -0.9612 -0.1808
vn 0.4130 0.8230 0.3901
vn 0.0303 0.9823 0.1847
vn 0.2496 0.9535 0.1690
vn 0.5812 -0.8137 -0.0050
vn 0.4932 0.8456 0.2043
vn -0.4889 -0.8399 -0.2358
vn 0.5076 0.8347 0.2134
vn 0.9316 -0.3616 -0.0378
vn -0.5680 0.8025 0.1827
vn 0.3223 -0.9454 -0.0475
vn -0.3405 0.9277 0.1530
vn 0.0341 -0.9993 -0.0154
vn -0.8826 0.4656 0.0647
vn 0.5739 -0.8038 -0.1566
vn -0.9813 0.0990 0.1648
vn 0.8028 0.5535 -0.2217
vn -0.7657 -0.5700 0.2980
vn 0.2290 0.9714 -0.0636
vn -0.5385 -0.8227 -0.1821
vn 0.5339 0.8130 0.2324
vn -0.1937 -0.9656 -0.1737
vn -0.5909 0.8067 0.0050
vn 0.2825 -0.9344 -0.2169
vn -0.2595 0.9652 -0.0316
vn 0.0464 0.9182 -0.3933
vn -0.1157 0.0273 0.9929
vn -0.5806 -0.7894 -0.1991
vn -0.9402 0.3384 0.0393
vn -0.2097 -0.9512 -0.2265
vn 0.2738 0.8966 0.3481
vn 0.9815 -0.0913 -0.1681
vn -0.8486 -0.4780 0.2266
vn 0.8846 -0.4615 -0.0672
vn -0.5987 0.7861 0.1536
vn 0.1469 -0.9723 -0.1820
vn -0.0146 -0.9997 0.0179
vn -0.7055 -0.5840 -0.4015
vn 0.1961 0.9594 0.2025
vn 0.9813 -0.0990 0.1648
vn -0.8028 -0.5535 -0.2217
vn 0.7657 0.5700 0.2980
vn -0.2290 -0.9714 -0.0636
vn 0.5680 -0.8025 0.1827
vn -0.3223 0.9454 -0.0475
vn 0.3405 -0.9277 0.1530
vn -0.0341 0.9993 -0.0154
vn 0.8826 -0.4656 0.0647
vn -0.5739 0.8038 -0.1566
vn -0.2496 -0.9535 0.1690
vn -0.5812 0.8137 -0.0050
vn -0.4932 -0.8456 0.2043
vn 0.4889 0.8399 -0.2358
vn -0.5076 -0.8347 0.2134
vn -0.9316 0.3616 -0.0378
vn -0.1657 -0.9762 0.1399
vn 0.2082 0.9612 -0.1808
vn -0.4130 -0.8230 0.3901
vn -0.0303 -0.9823 0.1847
vn -0.0725 -0.9972 -0.0179
vn 0.0402 0.9945 0.0969
vn -0.2604 -0.9624 0.0769
vn 0.4885 -0.8398 -0.2370
vn -0.8059 -0.5890 0.0607
vn 0.3789 0.8902 -0.2530
vn -0.9665 0.2566 -0.0019
vn 0.8157 0.5785 0.0016
vn -0.8143 -0.5769 -0.0645
vn 0.3367 0.9064 0.2551
vn 0.0327 -0.9994 0.0101
vn 0.0947 0.9949 0.0360
vn 0.3363 -0.9418 0.0014
vn 0.9404 0.3400 0.0038
vn 0.0330 -0.9994 -0.0103
vn 0.0943 0.9949 -0.0358
vn 0.1557 -0.9852 0.0715
vn 0.8596 0.3194 0.3989
vn -0.0003 -0.9994 -0.0344
vn -0.0023 0.9971 -0.0759
vn 0.0653 -0.9971 0.0385
vn -0.0704 0.9974 -0.0158
vn 0.0036 -1.0000 -0.0008
vn 0.2266 0.9700 -0.0879
vn -0.3924 -0.9176 0.0628
vn -0.5742 0.8135 -0.0929
vn 0.0104 0.9965 0.0832
vn -0.0123 -0.9881 -0.1536
vn -0.0327 -0.9978 0.0571
vn 0.1069 0.9908 -0.0824
vn 0.0996 -0.9873 0.1241
vn 0.1880 0.9543 0.2325
vn 0.3351 -0.9394 0.0720
vn 0.1373 0.9774 -0.1608
vn -0.0008 -0.9973 0.0731
vn 0.0001 1.0000 -0.0001
vn 0.2292 -0.9685 0.0973
vn -0.7174 0.6367 -0.2826
vn -0.1899 -0.9567 0.2205
vn -0.9798 0.1996 -0.0069
vn 0.6005 -0.7572 0.2570
vn -0.0874 0.9956 -0.0345
vn 0.5143 -0.8413 0.1665
vn -0.4354 0.8821 -0.1797
vn -0.1913 -0.9815 -0.0093
vn -0.2754 0.9612 -0.0133
vn 0.0834 -0.9940 0.0702
vn -0.3228 0.9451 0.0508
vn 0.7035 -0.7105 0.0171
vn 0.5124 0.8586 0.0125
vn 0.3239 -0.9449 -0.0484
vn -0.1068 0.9925 -0.0597
vn 0.3236 -0.9435 -0.0715
vn 0.1264 0.9784 0.1634
vn 0.2286 -0.9681 -0.1029
vn 0.2230 0.9697 -0.1000
vn 0.1480 -0.9882 -0.0387
vn -0.1459 0.9883 0.0453
vn 0.3741 -0.9113 -0.1719
vn -0.0013 -1.0000 0.0006
vn -0.4925 -0.8693 0.0412
vn 0.5348 0.8417 0.0742
vn 0.0659 -0.9978 -0.0003
vn 0.9977 0.0684 -0.0040
vn -0.5197 -0.8535 -0.0372
vn 0.5329 0.8427 -0.0769
vn -0.0507 -0.9987 0.0001
vn 0.5949 0.8038 -0.0012
vn -0.9865 -0.1260 0.1049
vn -0.1133 -0.9935 0.0113
vn -0.7631 -0.6384 0.1006
vn -0.4121 0.8336 -0.3678
vn 0.0052 0.9983 0.0586
vn -0.0733 0.5930 -0.8019
vn 0.2170 -0.4849 0.8472
vn 0.2725 -0.9590 0.0779
vn -0.3644 -0.9290 -0.0648
vn -0.5657 0.8195 0.0915
vn 0.0036 -1.0000 0.0009
vn 0.2255 0.9703 0.0871
vn -0.2922 0.9443 -0.1516
vn 0.1538 -0.9865 0.0559
vn -0.0465 -0.9982 -0.0380
vn 0.0570 0.9970 0.0517
vn -0.9888 -0.1151 -0.0945
vn -0.1130 -0.9935 -0.0101
vn -0.6688 0.6843 -0.2905
vn 0.1981 -0.9793 -0.0422
vn -0.1846 -0.9747 -0.1263
vn 0.3029 0.9292 0.2119
vn -0.7619 -0.6406 -0.0952
vn -0.3769 0.8372 0.3963
vn 0.2357 -0.9668 -0.0985
vn -0.7356 0.6130 0.2883
vn 0.4980 -0.8508 -0.1676
vn -0.4153 0.8915 0.1813
vn 0.5888 -0.7687 -0.2498
vn -0.0844 0.9959 0.0333
vn -0.1104 -0.9683 -0.2239
vn -0.9764 0.2161 0.0030
vn 0.7403 0.6473 0.1815
vn 0.6073 -0.7806 -0.1478
vn -0.4889 -0.4624 0.7397
vn 0.0473 -0.9790 -0.1985
vn -0.5227 0.8483 0.0848
vn 0.1690 -0.7333 -0.6586
vn 0.0368 0.9949 0.0943
vn 0.3055 -0.5657 -0.7659
vn 0.7600 0.6277 -0.1688
vn 0.5243 -0.8356 0.1638
vn 0.3656 0.9226 -0.1228
vn -0.9130 0.1187 0.3903
vn 0.0127 0.9915 -0.1295
vn -0.9683 -0.1909 0.1608
vn 0.7247 0.6300 -0.2793
vn -0.2285 -0.9715 0.0635
vn 0.5227 -0.2382 0.8185
vn 0.8600 -0.5099 -0.0210
vn -0.4304 -0.6292 0.6472
vn -0.4076 -0.6656 -0.6252
vn -0.5227 0.2382 0.8185
vn -0.8600 0.5099 -0.0210
vn 0.4304 0.6292 0.6472
vn 0.4076 0.6656 -0.6252
vn 0.8992 -0.3111 0.3076
vn -0.9805 -0.1483 -0.1288
vn 0.8262 0.5151 0.2282
vn -0.6877 0.7256 -0.0241
vn 0.9451 0.3236 0.0466
vn -0.8769 0.3846 -0.2883
vn 0.9741 -0.1675 0.1521
vn -0.9581 -0.2013 -0.2036
vn 0.5227 -0.8483 0.0848
vn -0.1690 0.7333 -0.6586
vn -0.0368 -0.9949 0.0943
vn -0.3055 0.5657 -0.7659
vn -0.7403 -0.6473 0.1815
vn -0.6073 0.7806 -0.1478
vn 0.4890 0.4624 0.7397
vn -0.0473 0.9790 -0.1985
vn -0.9451 -0.3236 0.0466
vn 0.8769 -0.3846 -0.2883
vn -0.9741 0.1675 0.1521
vn 0.9581 0.2013 -0.2036
vn -0.8992 0.3111 0.3076
vn 0.9805 0.1483 -0.1288
vn -0.8262 -0.5151 0.2282
vn 0.6877 -0.7256 -0.0241
vn -0.9365 -0.3474 -0.0481
vn 0.8650 -0.4044 0.2971
vn -0.8500 -0.4817 -0.2132
vn 0.6474 -0.7620 0.0130
vn -0.9268 0.2692 -0.2617
vn 0.9824 0.1480 0.1138
vn -0.9757 0.1572 -0.1524
vn 0.9283 0.3082 0.2080
vn -0.0127 -0.9915 -0.1295
vn 0.9683 0.1909 0.1608
vn -0.7247 -0.6300 -0.2793
vn 0.2285 0.9715 0.0635
vn -0.7600 -0.6277 -0.1688
vn -0.5243 0.8356 0.1638
vn -0.3656 -0.9226 -0.1228
vn 0.9130 -0.1187 0.3903
vn 0.9268 -0.2692 -0.2617
vn -0.9824 -0.1480 0.1138
vn 0.9757 -0.1572 -0.1524
vn -0.9283 -0.3082 0.2080
vn 0.9365 0.3474 -0.0481
vn -0.8650 0.4043 0.2971
vn 0.8500 0.4817 -0.2131
vn -0.6474 0.7620 0.0130
vn 0.2656 -0.2588 -0.9287
vn 0.8410 -0.5408 0.0174
vn 0.2658 0.4999 -0.8243
vn 0.4160 0.6645 0.6209
vn -0.2655 0.2588 -0.9287
vn -0.8410 0.5408 0.0174
vn -0.2658 -0.4999 -0.8243
vn -0.4160 -0.6645 0.6209
vn -0.0052 -0.9983 0.0586
vn 0.0733 -0.5930 -0.8019
vn -0.2170 0.4849 0.8472
vn -0.2725 0.9590 0.0779
vn 0.9865 0.1260 0.1049
vn 0.1133 0.9935 0.0113
vn 0.7631 0.6384 0.1006
vn 0.4121 -0.8336 -0.3678
vn -0.6005 0.7572 0.2570
vn 0.0874 -0.9956 -0.0345
vn -0.5143 0.8413 0.1665
vn 0.4354 -0.8821 -0.1797
vn -0.2292 0.9685 0.0973
vn 0.7174 -0.6367 -0.2826
vn 0.1899 0.9567 0.2205
vn 0.9798 -0.1996 -0.0069
vn -0.7035 0.7105 0.0171
vn -0.5124 -0.8586 0.0125
vn -0.3239 0.9449 -0.0484
vn 0.1068 -0.9925 -0.0597
vn 0.1913 0.9815 -0.0093
vn 0.2754 -0.9612 -0.0133
vn -0.0834 0.9940 0.0702
vn 0.3228 -0.9451 0.0508
vn -0.5888 0.7687 -0.2498
vn 0.0844 -0.9959 0.0333
vn 0.1104 0.9683 -0.2239
vn 0.9764 -0.2161 0.0030
vn -0.2357 0.9668 -0.0985
vn 0.7356 -0.6130 0.2883
vn -0.4980 0.8508 -0.1676
vn 0.4153 -0.8915 0.1813
vn 0.1846 0.9747 -0.1263
vn -0.3029 -0.9292 0.2119
vn 0.7619 0.6406 -0.0952
vn 0.3769 -0.8372 0.3963
vn 0.9888 0.1151 -0.0945
vn 0.1130 0.9935 -0.0101
vn 0.6688 -0.6843 -0.2905
vn -0.1981 0.9793 -0.0422
vn 0.3924 0.9176 0.0628
vn 0.5742 -0.8135 -0.0929
vn -0.0104 -0.9965 0.0832
vn 0.0123 0.9881 -0.1536
vn -0.0653 0.9971 0.0385
vn 0.0704 -0.9974 -0.0158
vn -0.0036 1.0000 -0.0008
vn -0.2266 -0.9700 -0.0879
vn 0.4925 0.8693 0.0412
vn -0.5348 -0.8417 0.0742
vn -0.0659 0.9978 -0.0003
vn -0.9977 -0.0684 -0.0040
vn 0.5197 0.8535 -0.0372
vn -0.5329 -0.8427 -0.0769
vn 0.0507 0.9987 0.0001
vn -0.5949 -0.8038 -0.0012
vn 0.0327 0.9978 0.0571
vn -0.1069 -0.9908 -0.0824
vn -0.0996 0.9873 0.1241
vn -0.1880 -0.9543 0.2325
vn -0.3351 0.9394 0.0720
vn -0.1373 -0.9774 -0.1608
vn 0.0008 0.9973 0.0731
vn -0.0001 -1.0000 -0.0001
vn -0.3236 0.9435 -0.0715
vn -0.1264 -0.9784 0.1634
vn -0.2286 0.9681 -0.1029
vn -0.2230 -0.9697 -0.1000
vn -0.1480 0.9882 -0.0387
vn 0.1459 -0.9883 0.0453
vn -0.3741 0.9113 -0.1719
vn 0.0013 1.0000 0.0006
vn 0.2922 -0.9443 -0.1516
vn -0.1538 0.9865 0.0559
vn 0.0465 0.9982 -0.0380
vn -0.0570 -0.9970 0.0517
vn 0.3644 0.9290 -0.0648
vn 0.5657 -0.8195 0.0915
vn -0.0036 1.0000 0.0009
vn -0.2255 -0.9703 0.0871
vn -0.0660 0.9911 -0.1152
vn 0.0710 -0.9939 0.0847
vn -0.0020 -0.9998 -0.0220
vn 0.0165 0.9705 0.2406
vn 0.5034 0.8487 -0.1619
vn 0.4518 0.3107 0.8363
vt 0.390019 0.089743
vt 0.363637 0.135438
vt 0.337255 0.089743
vt 0.727273 0.135437
vt 0.700891 0.089743
vt 0.753654 0.089743
vt 0.181819 0.135438
vt 0.155437 0.089742
vt 0.208201 0.089742
vt 0.545455 0.135438
vt 0.519073 0.089742
vt 0.571837 0.089742
vt 0.208200 0.225178
vt 0.155438 0.225178
vt 0.181819 0.179485
vt 0.272728 0.292896
vt 0.246348 0.247204
vt 0.299109 0.247204
vt 0.390018 0.225178
vt 0.337256 0.225178
vt 0.363637 0.179484
vt 0.090910 0.292897
vt 0.064529 0.247204
vt 0.117291 0.247204
vt 0.818182 0.292898
vt 0.791800 0.247204
vt 0.844563 0.247204
vt 0.636364 0.292897
vt 0.609983 0.247204
vt 0.662745 0.247204
vt 0.935471 0.225178
vt 0.882710 0.225178
vt 0.909091 0.179485
vt 0.753654 0.225178
vt 0.700893 0.225178
vt 0.727273 0.179485
vt 0.571836 0.225178
vt 0.519074 0.225178
vt 0.545455 0.179485
vt 0.454546 0.292896
vt 0.428165 0.247204
vt 0.480926 0.247204
vt 0.299109 0.382639
vt 0.246347 0.382639
vt 0.272728 0.336945
vt 0.117292 0.382640
vt 0.064528 0.382640
vt 0.090910 0.336944
vt 0.844564 0.382639
vt 0.791800 0.382639
vt 0.818182 0.336944
vt 0.662746 0.382640
vt 0.609982 0.382640
vt 0.636364 0.336944
vt 0.480927 0.382639
vt 0.428165 0.382639
vt 0.454546 0.336945
vt 0.909091 0.135437
vt 0.850446 0.101577
vt 0.901624 0.012933
vt 0.916559 0.012934
vt 0.967737 0.101578
vt 0.214083 0.055884
vt 0.265262 0.144529
vt 0.257794 0.157461
vt 0.155437 0.157461
vt 0.882710 0.089743
vt 0.941355 0.055883
vt 0.992534 0.144529
vt 0.985066 0.157461
vt 0.882710 0.157461
vt 0.876827 0.055883
vt 0.935472 0.089743
vt 0.935471 0.157461
vt 0.833116 0.157461
vt 0.825649 0.144527
vt 0.695009 0.055883
vt 0.753654 0.157461
vt 0.651298 0.157461
vt 0.643830 0.144529
vt 0.462012 0.144529
vt 0.513191 0.055884
vt 0.571837 0.157461
vt 0.469480 0.157461
vt 0.123173 0.213343
vt 0.174352 0.301987
vt 0.166886 0.314921
vt 0.064528 0.314921
vt 0.850446 0.213344
vt 0.901624 0.301988
vt 0.894158 0.314921
vt 0.791800 0.314921
vt 0.734740 0.301988
vt 0.785918 0.213344
vt 0.844564 0.314921
vt 0.742206 0.314921
vt 0.552922 0.301987
vt 0.604101 0.213342
vt 0.662746 0.314921
vt 0.560388 0.314921
vt 0.304991 0.213342
vt 0.356169 0.301986
vt 0.348701 0.314921
vt 0.246346 0.314921
vt 0.876827 0.370804
vt 0.825649 0.459449
vt 0.810715 0.459449
vt 0.759536 0.370804
vt 0.240465 0.101579
vt 0.486809 0.101579
vt 0.668627 0.101578
vt 0.941355 0.259039
vt 0.967736 0.213345
vt 0.123174 0.416498
vt 0.149555 0.370804
vt 0.304992 0.416499
vt 0.331373 0.370805
vt 0.850446 0.416499
vt 0.785918 0.416499
vt 0.577719 0.370804
vt 0.604100 0.416498
s 0
f 121/1/1 122/2/1 7/2/1 11/1/1
f 122/2/2 121/1/2 12/1/2 8/2/2
f 122/2/3 123/3/3 53/3/3 7/2/3
f 123/3/4 122/2/4 8/2/4 54/3/4
f 123/3/5 121/1/5 11/1/5 53/3/5
f 121/1/6 123/3/6 54/3/6 12/1/6
f 124/4/7 125/5/7 31/5/7 3/4/7
f 125/5/8 124/4/8 4/4/8 32/5/8
f 125/5/9 126/6/9 43/6/9 31/5/9
f 126/6/10 125/5/10 32/5/10 44/6/10
f 126/6/11 124/4/11 3/4/11 43/6/11
f 124/4/12 126/6/12 44/6/12 4/4/12
f 127/7/13 128/8/13 19/8/13 9/7/13
f 128/8/14 127/7/14 10/7/14 20/8/14
f 128/8/15 129/9/15 23/9/15 19/8/15
f 129/9/16 128/8/16 20/8/16 24/9/16
f 129/9/17 127/7/17 9/7/17 23/9/17
f 127/7/18 129/9/18 24/9/18 10/7/18
f 130/10/19 131/11/19 41/11/19 5/10/19
f 131/11/20 130/10/20 6/10/20 42/11/20
f 131/11/21 132/12/21 55/12/21 41/11/21
f 132/12/22 131/11/22 42/11/22 56/12/22
f 132/12/23 130/10/23 5/10/23 55/12/23
f 130/10/24 132/12/24 56/12/24 6/10/24
f 133/13/25 134/14/25 17/14/25 25/13/25
f 134/14/26 133/13/26 26/13/26 18/14/26
f 134/14/27 135/15/27 63/15/27 17/14/27
f 135/15/28 134/14/28 18/14/28 64/15/28
f 135/15/29 133/13/29 25/13/29 63/15/29
f 133/13/30 135/15/30 64/15/30 26/13/30
f 136/16/31 137/17/31 101/17/31 15/16/31
f 137/17/32 136/16/32 16/16/32 102/17/32
f 137/17/33 138/18/33 65/18/33 101/17/33
f 138/18/34 137/17/34 102/17/34 66/18/34
f 138/18/35 136/16/35 15/16/35 65/18/35
f 136/16/36 138/18/36 66/18/36 16/16/36
f 139/19/37 140/20/37 51/20/37 13/19/37
f 140/20/38 139/19/38 14/19/38 52/20/38
f 140/20/39 141/21/39 103/21/39 51/20/39
f 141/21/40 140/20/40 52/20/40 104/21/40
f 141/21/41 139/19/41 13/19/41 103/21/41
f 139/19/42 141/21/42 104/21/42 14/19/42
f 142/22/43 143/23/43 61/23/43 27/22/43
f 143/23/44 142/22/44 28/22/44 62/23/44
f 143/23/45 144/24/45 75/24/45 61/23/45
f 144/24/46 143/23/46 62/23/46 76/24/46
f 144/24/47 142/22/47 27/22/47 75/24/47
f 142/22/48 144/24/48 76/24/48 28/22/48
f 145/25/49 146/26/49 71/26/49 37/25/49
f 146/26/50 145/25/50 38/25/50 72/26/50
f 146/26/51 147/27/51 85/27/51 71/26/51
f 147/27/52 146/26/52 72/26/52 86/27/52
f 147/27/53 145/25/53 37/25/53 85/27/53
f 145/25/54 147/27/54 86/27/54 38/25/54
f 148/28/55 149/29/55 81/29/55 47/28/55
f 149/29/56 148/28/56 48/28/56 82/29/56
f 149/29/57 150/30/57 95/30/57 81/29/57
f 150/30/58 149/29/58 82/29/58 96/30/58
f 150/30/59 148/28/59 47/28/59 95/30/59
f 148/28/60 150/30/60 96/30/60 48/28/60
f 151/31/61 152/32/61 29/32/61 35/31/61
f 152/32/62 151/31/62 36/31/62 30/32/62
f 152/32/63 153/33/63 73/33/63 29/32/63
f 153/33/64 152/32/64 30/32/64 74/33/64
f 153/33/65 151/31/65 35/31/65 73/33/65
f 151/31/66 153/33/66 74/33/66 36/31/66
f 154/34/67 155/35/67 39/35/67 45/34/67
f 155/35/68 154/34/68 46/34/68 40/35/68
f 155/35/69 156/36/69 83/36/69 39/35/69
f 156/36/70 155/35/70 40/35/70 84/36/70
f 156/36/71 154/34/71 45/34/71 83/36/71
f 154/34/72 156/36/72 84/36/72 46/34/72
f 157/37/73 158/38/73 49/38/73 57/37/73
f 158/38/74 157/37/74 58/37/74 50/38/74
f 158/38/75 159/39/75 93/39/75 49/38/75
f 159/39/76 158/38/76 50/38/76 94/39/76
f 159/39/77 157/37/77 57/37/77 93/39/77
f 157/37/78 159/39/78 94/39/78 58/37/78
f 160/40/79 161/41/79 91/41/79 59/40/79
f 161/41/80 160/40/80 60/40/80 92/41/80
f 161/41/81 162/42/81 105/42/81 91/41/81
f 162/42/82 161/41/82 92/41/82 106/42/82
f 162/42/83 160/40/83 59/40/83 105/42/83
f 160/40/84 162/42/84 106/42/84 60/40/84
f 163/43/85 164/44/85 109/44/85 67/43/85
f 164/44/86 163/43/86 68/43/86 110/44/86
f 164/44/87 165/45/87 113/45/87 109/44/87
f 165/45/88 164/44/88 110/44/88 114/45/88
f 165/45/89 163/43/89 67/43/89 113/45/89
f 163/43/90 165/45/90 114/45/90 68/43/90
f 166/46/91 167/47/91 69/47/91 77/46/91
f 167/47/92 166/46/92 78/46/92 70/47/92
f 167/47/93 168/48/93 111/48/93 69/47/93
f 168/48/94 167/47/94 70/47/94 112/48/94
f 168/48/95 166/46/95 77/46/95 111/48/95
f 166/46/96 168/48/96 112/48/96 78/46/96
f 169/49/97 170/50/97 79/50/97 87/49/97
f 170/50/98 169/49/98 88/49/98 80/50/98
f 170/50/99 171/51/99 119/51/99 79/50/99
f 171/51/100 170/50/100 80/50/100 120/51/100
f 171/51/101 169/49/101 87/49/101 119/51/101
f 169/49/102 171/51/102 120/51/102 88/49/102
f 172/52/103 173/53/103 89/53/103 97/52/103
f 173/53/104 172/52/104 98/52/104 90/53/104
f 173/53/105 174/54/105 117/54/105 89/53/105
f 174/54/106 173/53/106 90/53/106 118/54/106
f 174/54/107 172/52/107 97/52/107 117/54/107
f 172/52/108 174/54/108 118/54/108 98/52/108
f 175/55/109 176/56/109 99/56/109 107/55/109
f 176/56/110 175/55/110 108/55/110 100/56/110
f 176/56/111 177/57/111 115/57/111 99/56/111
f 177/57/112 176/56/112 100/56/112 116/57/112
f 177/57/113 175/55/113 107/55/113 115/57/113
f 175/55/114 177/57/114 116/57/114 108/55/114
f 178/58/115 179/59/115 3/59/115 1/58/115
f 179/59/116 178/58/116 2/58/116 4/59/116
f 179/59/117 180/60/117 5/60/117 3/59/117
f 180/60/118 179/59/118 4/59/118 6/60/118
f 180/60/119 181/61/119 7/61/119 5/60/119
f 181/61/120 180/60/120 6/60/120 8/61/120
f 181/61/121 182/62/121 9/62/121 7/61/121
f 182/62/122 181/61/122 8/61/122 10/62/122
f 182/62/123 178/58/123 1/58/123 9/62/123
f 178/58/124 182/62/124 10/62/124 2/58/124
f 183/63/125 184/64/125 13/64/125 11/63/125
f 184/64/126 183/63/126 12/63/126 14/64/126
f 184/64/127 185/65/127 15/65/127 13/64/127
f 185/65/128 184/64/128 14/64/128 16/65/128
f 185/65/129 186/66/129 17/66/129 15/65/129
f 186/66/130 185/65/130 16/65/130 18/66/130
f 186/66/131 187/8/131 19/8/131 17/66/131
f 187/8/132 186/66/132 18/66/132 20/8/132
f 187/8/133 183/63/133 11/63/133 19/8/133
f 183/63/134 187/8/134 20/8/134 12/63/134
f 188/67/135 189/68/135 23/68/135 21/67/135
f 189/68/136 188/67/136 22/67/136 24/68/136
f 189/68/137 190/69/137 25/69/137 23/68/137
f 190/69/138 189/68/138 24/68/138 26/69/138
f 190/69/139 191/70/139 27/70/139 25/69/139
f 191/70/140 190/69/140 26/69/140 28/70/140
f 191/70/141 192/71/141 29/71/141 27/70/141
f 192/71/142 191/70/142 28/70/142 30/71/142
f 192/71/143 188/67/143 21/67/143 29/71/143
f 188/67/144 192/71/144 30/71/144 22/67/144
f 193/72/145 194/73/145 33/73/145 31/72/145
f 194/73/146 193/72/146 32/72/146 34/73/146
f 194/73/147 195/74/147 35/74/147 33/73/147
f 195/74/148 194/73/148 34/73/148 36/74/148
f 195/74/149 196/75/149 37/75/149 35/74/149
f 196/75/150 195/74/150 36/74/150 38/75/150
f 196/75/151 197/76/151 39/76/151 37/75/151
f 197/76/152 196/75/152 38/75/152 40/76/152
f 197/76/153 193/72/153 31/72/153 39/76/153
f 193/72/154 197/76/154 40/76/154 32/72/154
f 198/77/155 199/6/155 43/6/155 41/77/155
f 199/6/156 198/77/156 42/77/156 44/6/156
f 199/6/157 200/78/157 45/78/157 43/6/157
f 200/78/158 199/6/158 44/6/158 46/78/158
f 200/78/159 201/79/159 47/79/159 45/78/159
f 201/79/160 200/78/160 46/78/160 48/79/160
f 201/79/161 202/80/161 49/80/161 47/79/161
f 202/80/162 201/79/162 48/79/162 50/80/162
f 202/80/163 198/77/163 41/77/163 49/80/163
f 198/77/164 202/80/164 50/80/164 42/77/164
f 203/81/165 204/82/165 53/82/165 51/81/165
f 204/82/166 203/81/166 52/81/166 54/82/166
f 204/82/167 205/12/167 55/12/167 53/82/167
f 205/12/168 204/82/168 54/82/168 56/12/168
f 205/12/169 206/83/169 57/83/169 55/12/169
f 206/83/170 205/12/170 56/12/170 58/83/170
f 206/83/171 207/84/171 59/84/171 57/83/171
f 207/84/172 206/83/172 58/83/172 60/84/172
f 207/84/173 203/81/173 51/81/173 59/84/173
f 203/81/174 207/84/174 60/84/174 52/81/174
f 208/23/175 209/85/175 63/85/175 61/23/175
f 209/85/176 208/23/176 62/23/176 64/85/176
f 209/85/177 210/86/177 65/86/177 63/85/177
f 210/86/178 209/85/178 64/85/178 66/86/178
f 210/86/179 211/87/179 67/87/179 65/86/179
f 211/87/180 210/86/180 66/86/180 68/87/180
f 211/87/181 212/88/181 69/88/181 67/87/181
f 212/88/182 211/87/182 68/87/182 70/88/182
f 212/88/183 208/23/183 61/23/183 69/88/183
f 208/23/184 212/88/184 70/88/184 62/23/184
f 213/26/185 214/89/185 73/89/185 71/26/185
f 214/89/186 213/26/186 72/26/186 74/89/186
f 214/89/187 215/90/187 75/90/187 73/89/187
f 215/90/188 214/89/188 74/89/188 76/90/188
f 215/90/189 216/91/189 77/91/189 75/90/189
f 216/91/190 215/90/190 76/90/190 78/91/190
f 216/91/191 217/92/191 79/92/191 77/91/191
f 217/92/192 216/91/192 78/91/192 80/92/192
f 217/92/193 213/26/193 71/26/193 79/92/193
f 213/26/194 217/92/194 80/92/194 72/26/194
f 218/93/195 219/94/195 83/94/195 81/93/195
f 219/94/196 218/93/196 82/93/196 84/94/196
f 219/94/197 220/27/197 85/27/197 83/94/197
f 220/27/198 219/94/198 84/94/198 86/27/198
f 220/27/199 221/95/199 87/95/199 85/27/199
f 221/95/200 220/27/200 86/27/200 88/95/200
f 221/95/201 222/96/201 89/96/201 87/95/201
f 222/96/202 221/95/202 88/95/202 90/96/202
f 222/96/203 218/93/203 81/93/203 89/96/203
f 218/93/204 222/96/204 90/96/204 82/93/204
f 223/97/205 224/98/205 93/98/205 91/97/205
f 224/98/206 223/97/206 92/97/206 94/98/206
f 224/98/207 225/30/207 95/30/207 93/98/207
f 225/30/208 224/98/208 94/98/208 96/30/208
f 225/30/209 226/99/209 97/99/209 95/30/209
f 226/99/210 225/30/210 96/30/210 98/99/210
f 226/99/211 227/100/211 99/100/211 97/99/211
f 227/100/212 226/99/212 98/99/212 100/100/212
f 227/100/213 223/97/213 91/97/213 99/100/213
f 223/97/214 227/100/214 100/100/214 92/97/214
f 228/17/215 229/101/215 103/101/215 101/17/215
f 229/101/216 228/17/216 102/17/216 104/101/216
f 229/101/217 230/102/217 105/102/217 103/101/217
f 230/102/218 229/101/218 104/101/218 106/102/218
f 230/102/219 231/103/219 107/103/219 105/102/219
f 231/103/220 230/102/220 106/102/220 108/103/220
f 231/103/221 232/104/221 109/104/221 107/103/221
f 232/104/222 231/103/222 108/103/222 110/104/222
f 232/104/223 228/17/223 101/17/223 109/104/223
f 228/17/224 232/104/224 110/104/224 102/17/224
f 233/105/225 234/106/225 113/106/225 111/105/225
f 234/106/226 233/105/226 112/105/226 114/106/226
f 234/106/227 235/107/227 115/107/227 113/106/227
f 235/107/228 234/106/228 114/106/228 116/107/228
f 235/107/229 236/108/229 117/108/229 115/107/229
f 236/108/230 235/107/230 116/107/230 118/108/230
f 236/108/231 237/51/231 119/51/231 117/108/231
f 237/51/232 236/108/232 118/108/232 120/51/232
f 237/51/233 233/105/233 111/105/233 119/51/233
f 233/105/234 237/51/234 120/51/234 112/105/234
f 238/67/235 239/58/235 1/58/235 21/67/235
f 239/58/236 238/67/236 22/67/236 2/58/236
f 239/58/237 240/62/237 9/62/237 1/58/237
f 240/62/238 239/58/238 2/58/238 10/62/238
f 240/62/239 241/68/239 23/68/239 9/62/239
f 241/68/240 240/62/240 10/62/240 24/68/240
f 241/68/241 238/67/241 21/67/241 23/68/241
f 238/67/242 241/68/242 24/68/242 22/67/242
f 242/109/243 243/63/243 11/63/243 7/109/243
f 243/63/244 242/109/244 8/109/244 12/63/244
f 243/63/245 244/8/245 19/8/245 11/63/245
f 244/8/246 243/63/246 12/63/246 20/8/246
f 244/8/247 245/7/247 9/7/247 19/8/247
f 245/7/248 244/8/248 20/8/248 10/7/248
f 245/7/249 242/109/249 7/109/249 9/7/249
f 242/109/250 245/7/250 10/7/250 8/109/250
f 246/14/251 247/13/251 25/13/251 17/14/251
f 247/13/252 246/14/252 18/14/252 26/13/252
f 247/13/253 248/9/253 23/9/253 25/13/253
f 248/9/254 247/13/254 26/13/254 24/9/254
f 248/9/255 249/8/255 19/8/255 23/9/255
f 249/8/256 248/9/256 24/9/256 20/8/256
f 249/8/257 246/14/257 17/14/257 19/8/257
f 246/14/258 249/8/258 20/8/258 18/14/258
f 250/20/259 251/19/259 13/19/259 51/20/259
f 251/19/260 250/20/260 52/20/260 14/19/260
f 251/19/261 252/1/261 11/1/261 13/19/261
f 252/1/262 251/19/262 14/19/262 12/1/262
f 252/1/263 253/3/263 53/3/263 11/1/263
f 253/3/264 252/1/264 12/1/264 54/3/264
f 253/3/265 250/20/265 51/20/265 53/3/265
f 250/20/266 253/3/266 54/3/266 52/20/266
f 254/10/267 255/12/267 55/12/267 5/10/267
f 255/12/268 254/10/268 6/10/268 56/12/268
f 255/12/269 256/82/269 53/82/269 55/12/269
f 256/82/270 255/12/270 56/12/270 54/82/270
f 256/82/271 257/110/271 7/110/271 53/82/271
f 257/110/272 256/82/272 54/82/272 8/110/272
f 257/110/273 254/10/273 5/10/273 7/110/273
f 254/10/274 257/110/274 8/110/274 6/10/274
f 258/72/275 259/59/275 3/59/275 31/72/275
f 259/59/276 258/72/276 32/72/276 4/59/276
f 259/59/277 260/58/277 1/58/277 3/59/277
f 260/58/278 259/59/278 4/59/278 2/58/278
f 260/58/279 261/73/279 33/73/279 1/58/279
f 261/73/280 260/58/280 2/58/280 34/73/280
f 261/73/281 258/72/281 31/72/281 33/73/281
f 258/72/282 261/73/282 34/73/282 32/72/282
f 262/32/283 263/31/283 35/31/283 29/32/283
f 263/31/284 262/32/284 30/32/284 36/31/284
f 263/31/285 264/73/285 33/73/285 35/31/285
f 264/73/286 263/31/286 36/31/286 34/73/286
f 264/73/287 265/67/287 21/67/287 33/73/287
f 265/67/288 264/73/288 34/73/288 22/67/288
f 265/67/289 262/32/289 29/32/289 21/67/289
f 262/32/290 265/67/290 22/67/290 30/32/290
f 266/77/291 267/111/291 5/111/291 41/77/291
f 267/111/292 266/77/292 42/77/292 6/111/292
f 267/111/293 268/4/293 3/4/293 5/111/293
f 268/4/294 267/111/294 6/111/294 4/4/294
f 268/4/295 269/6/295 43/6/295 3/4/295
f 269/6/296 268/4/296 4/4/296 44/6/296
f 269/6/297 266/77/297 41/77/297 43/6/297
f 266/77/298 269/6/298 44/6/298 42/77/298
f 270/35/299 271/34/299 45/34/299 39/35/299
f 271/34/300 270/35/300 40/35/300 46/34/300
f 271/34/301 272/6/301 43/6/301 45/34/301
f 272/6/302 271/34/302 46/34/302 44/6/302
f 272/6/303 273/5/303 31/5/303 43/6/303
f 273/5/304 272/6/304 44/6/304 32/5/304
f 273/5/305 270/35/305 39/35/305 31/5/305
f 270/35/306 273/5/306 32/5/306 40/35/306
f 274/38/307 275/37/307 57/37/307 49/38/307
f 275/37/308 274/38/308 50/38/308 58/37/308
f 275/37/309 276/12/309 55/12/309 57/37/309
f 276/12/310 275/37/310 58/37/310 56/12/310
f 276/12/311 277/11/311 41/11/311 55/12/311
f 277/11/312 276/12/312 56/12/312 42/11/312
f 277/11/313 274/38/313 49/38/313 41/11/313
f 274/38/314 277/11/314 42/11/314 50/38/314
f 278/17/315 279/16/315 15/16/315 101/17/315
f 279/16/316 278/17/316 102/17/316 16/16/316
f 279/16/317 280/19/317 13/19/317 15/16/317
f 280/19/318 279/16/318 16/16/318 14/19/318
f 280/19/319 281/21/319 103/21/319 13/19/319
f 281/21/320 280/19/320 14/19/320 104/21/320
f 281/21/321 278/17/321 101/17/321 103/21/321
f 278/17/322 281/21/322 104/21/322 102/17/322
f 282/40/323 283/42/323 105/42/323 59/40/323
f 283/42/324 282/40/324 60/40/324 106/42/324
f 283/42/325 284/21/325 103/21/325 105/42/325
f 284/21/326 283/42/326 106/42/326 104/21/326
f 284/21/327 285/20/327 51/20/327 103/21/327
f 285/20/328 284/21/328 104/21/328 52/20/328
f 285/20/329 282/40/329 59/40/329 51/20/329
f 282/40/330 285/20/330 52/20/330 60/40/330
f 286/23/331 287/22/331 27/22/331 61/23/331
f 287/22/332 286/23/332 62/23/332 28/22/332
f 287/22/333 288/13/333 25/13/333 27/22/333
f 288/13/334 287/22/334 28/22/334 26/13/334
f 288/13/335 289/15/335 63/15/335 25/13/335
f 289/15/336 288/13/336 26/13/336 64/15/336
f 289/15/337 286/23/337 61/23/337 63/15/337
f 286/23/338 289/15/338 64/15/338 62/23/338
f 290/16/339 291/18/339 65/18/339 15/16/339
f 291/18/340 290/16/340 16/16/340 66/18/340
f 291/18/341 292/15/341 63/15/341 65/18/341
f 292/15/342 291/18/342 66/18/342 64/15/342
f 292/15/343 293/14/343 17/14/343 63/15/343
f 293/14/344 292/15/344 64/15/344 18/14/344
f 293/14/345 290/16/345 15/16/345 17/14/345
f 290/16/346 293/14/346 18/14/346 16/16/346
f 294/26/347 295/25/347 37/25/347 71/26/347
f 295/25/348 294/26/348 72/26/348 38/25/348
f 295/25/349 296/31/349 35/31/349 37/25/349
f 296/31/350 295/25/350 38/25/350 36/31/350
f 296/31/351 297/33/351 73/33/351 35/31/351
f 297/33/352 296/31/352 36/31/352 74/33/352
f 297/33/353 294/26/353 71/26/353 73/33/353
f 294/26/354 297/33/354 74/33/354 72/26/354
f 298/112/355 299/113/355 75/113/355 27/112/355
f 299/113/356 298/112/356 28/112/356 76/113/356
f 299/113/357 300/33/357 73/33/357 75/113/357
f 300/33/358 299/113/358 76/113/358 74/33/358
f 300/33/359 301/32/359 29/32/359 73/33/359
f 301/32/360 300/33/360 74/33/360 30/32/360
f 301/32/361 298/112/361 27/112/361 29/32/361
f 298/112/362 301/32/362 30/32/362 28/112/362
f 302/29/363 303/28/363 47/28/363 81/29/363
f 303/28/364 302/29/364 82/29/364 48/28/364
f 303/28/365 304/34/365 45/34/365 47/28/365
f 304/34/366 303/28/366 48/28/366 46/34/366
f 304/34/367 305/36/367 83/36/367 45/34/367
f 305/36/368 304/34/368 46/34/368 84/36/368
f 305/36/369 302/29/369 81/29/369 83/36/369
f 302/29/370 305/36/370 84/36/370 82/29/370
f 306/25/371 307/27/371 85/27/371 37/25/371
f 307/27/372 306/25/372 38/25/372 86/27/372
f 307/27/373 308/36/373 83/36/373 85/27/373
f 308/36/374 307/27/374 86/27/374 84/36/374
f 308/36/375 309/35/375 39/35/375 83/36/375
f 309/35/376 308/36/376 84/36/376 40/35/376
f 309/35/377 306/25/377 37/25/377 39/35/377
f 306/25/378 309/35/378 40/35/378 38/25/378
f 310/41/379 311/40/379 59/40/379 91/41/379
f 311/40/380 310/41/380 92/41/380 60/40/380
f 311/40/381 312/37/381 57/37/381 59/40/381
f 312/37/382 311/40/382 60/40/382 58/37/382
f 312/37/383 313/39/383 93/39/383 57/37/383
f 313/39/384 312/37/384 58/37/384 94/39/384
f 313/39/385 310/41/385 91/41/385 93/39/385
f 310/41/386 313/39/386 94/39/386 92/41/386
f 314/28/387 315/30/387 95/30/387 47/28/387
f 315/30/388 314/28/388 48/28/388 96/30/388
f 315/30/389 316/39/389 93/39/389 95/30/389
f 316/39/390 315/30/390 96/30/390 94/39/390
f 316/39/391 317/38/391 49/38/391 93/39/391
f 317/38/392 316/39/392 94/39/392 50/38/392
f 317/38/393 314/28/393 47/28/393 49/38/393
f 314/28/394 317/38/394 50/38/394 48/28/394
f 318/44/395 319/43/395 67/43/395 109/44/395
f 319/43/396 318/44/396 110/44/396 68/43/396
f 319/43/397 320/18/397 65/18/397 67/43/397
f 320/18/398 319/43/398 68/43/398 66/18/398
f 320/18/399 321/17/399 101/17/399 65/18/399
f 321/17/400 320/18/400 66/18/400 102/17/400
f 321/17/401 318/44/401 109/44/401 101/17/401
f 318/44/402 321/17/402 102/17/402 110/44/402
f 322/47/403 323/46/403 77/46/403 69/47/403
f 323/46/404 322/47/404 70/47/404 78/46/404
f 323/46/405 324/24/405 75/24/405 77/46/405
f 324/24/406 323/46/406 78/46/406 76/24/406
f 324/24/407 325/23/407 61/23/407 75/24/407
f 325/23/408 324/24/408 76/24/408 62/23/408
f 325/23/409 322/47/409 69/47/409 61/23/409
f 322/47/410 325/23/410 62/23/410 70/47/410
f 326/50/411 327/49/411 87/49/411 79/50/411
f 327/49/412 326/50/412 80/50/412 88/49/412
f 327/49/413 328/27/413 85/27/413 87/49/413
f 328/27/414 327/49/414 88/49/414 86/27/414
f 328/27/415 329/26/415 71/26/415 85/27/415
f 329/26/416 328/27/416 86/27/416 72/26/416
f 329/26/417 326/50/417 79/50/417 71/26/417
f 326/50/418 329/26/418 72/26/418 80/50/418
f 330/53/419 331/52/419 97/52/419 89/53/419
f 331/52/420 330/53/420 90/53/420 98/52/420
f 331/52/421 332/30/421 95/30/421 97/52/421
f 332/30/422 331/52/422 98/52/422 96/30/422
f 332/30/423 333/29/423 81/29/423 95/30/423
f 333/29/424 332/30/424 96/30/424 82/29/424
f 333/29/425 330/53/425 89/53/425 81/29/425
f 330/53/426 333/29/426 82/29/426 90/53/426
f 334/56/427 335/55/427 107/55/427 99/56/427
f 335/55/428 334/56/428 100/56/428 108/55/428
f 335/55/429 336/42/429 105/42/429 107/55/429
f 336/42/430 335/55/430 108/55/430 106/42/430
f 336/42/431 337/41/431 91/41/431 105/42/431
f 337/41/432 336/42/432 106/42/432 92/41/432
f 337/41/433 334/56/433 99/56/433 91/41/433
f 334/56/434 337/41/434 92/41/434 100/56/434
f 338/48/435 339/47/435 69/47/435 111/48/435
f 339/47/436 338/48/436 112/48/436 70/47/436
f 339/47/437 340/114/437 67/114/437 69/47/437
f 340/114/438 339/47/438 70/47/438 68/114/438
f 340/114/439 341/115/439 113/115/439 67/114/439
f 341/115/440 340/114/440 68/114/440 114/115/440
f 341/115/441 338/48/441 111/48/441 113/115/441
f 338/48/442 341/115/442 114/115/442 112/48/442
f 342/116/443 343/117/443 115/117/443 107/116/443
f 343/117/444 342/116/444 108/116/444 116/117/444
f 343/117/445 344/45/445 113/45/445 115/117/445
f 344/45/446 343/117/446 116/117/446 114/45/446
f 344/45/447 345/44/447 109/44/447 113/45/447
f 345/44/448 344/45/448 114/45/448 110/44/448
f 345/44/449 342/116/449 107/116/449 109/44/449
f 342/116/450 345/44/450 110/44/450 108/116/450
f 346/51/451 347/50/451 79/50/451 119/51/451
f 347/50/452 346/51/452 120/51/452 80/50/452
f 347/50/453 348/118/453 77/118/453 79/50/453
f 348/118/454 347/50/454 80/50/454 78/118/454
f 348/118/455 349/105/455 111/105/455 77/118/455
f 349/105/456 348/118/456 78/118/456 112/105/456
f 349/105/457 346/51/457 119/51/457 111/105/457
f 346/51/458 349/105/458 112/105/458 120/51/458
f 350/108/459 351/119/459 89/119/459 117/108/459
f 351/119/460 350/108/460 118/108/460 90/119/460
f 351/119/461 352/49/461 87/49/461 89/119/461
f 352/49/462 351/119/462 90/119/462 88/49/462
f 352/49/463 353/51/463 119/51/463 87/49/463
f 353/51/464 352/49/464 88/49/464 120/51/464
f 353/51/465 350/108/465 117/108/465 119/51/465
f 350/108/466 353/51/466 120/51/466 118/108/466
f 354/120/467 355/121/467 99/121/467 115/120/467
f 355/121/468 354/120/468 116/120/468 100/121/468
f 355/121/469 356/52/469 97/52/469 99/121/469
f 356/52/470 355/121/470 100/121/470 98/52/470
f 356/52/471 357/54/471 117/54/471 97/52/471
f 357/54/472 356/52/472 98/52/472 118/54/472
f 357/54/473 354/120/473 115/120/473 117/54/473
f 354/120/474 357/54/474 118/54/474 116/120/474
f 358/58/475 359/67/475 21/67/475 1/58/475
f 359/67/476 358/58/476 2/58/476 22/67/476
f 359/67/477 360/73/477 33/73/477 21/67/477
f 360/73/478 359/67/478 22/67/478 34/73/478
f 360/73/479 358/58/479 1/58/479 33/73/479
f 358/58/480 360/73/480 34/73/480 2/58/480
